<?xml version="1.0" standalone="no"?>
<!DOCTYPE svg PUBLIC "-//W3C//DTD SVG 20010904//EN"
 "http://www.w3.org/TR/2001/REC-SVG-20010904/DTD/svg10.dtd">
<svg version="1.0" xmlns="http://www.w3.org/2000/svg"
 width="1000.000000pt" height="1000.000000pt" viewBox="0 0 1000.000000 1000.000000"
 preserveAspectRatio="xMidYMid meet">
<metadata>
Created by potrace 1.14, written by Peter Selinger 2001-2017
</metadata>
<g transform="translate(0.000000,1000.000000) scale(0.100000,-0.100000)"
fill="#000000" stroke="none">
<path d="M5898 9315 c-74 -52 -144 -95 -155 -95 -18 0 -185 -121 -301 -218
-57 -48 -112 -140 -202 -338 l-55 -121 -54 3 c-96 6 -136 -39 -167 -187 -17
-80 -14 -206 5 -249 10 -22 6 -38 -29 -115 l-40 -90 -62 3 c-35 1 -77 5 -94 7
l-30 5 1 108 c2 94 -1 112 -21 147 -44 79 -118 124 -258 160 -140 35 -273 49
-481 49 -341 0 -594 -52 -698 -143 -55 -49 -80 -96 -74 -137 6 -34 5 -34 -31
-34 -20 0 -98 7 -172 15 -74 8 -140 15 -147 15 -7 0 -18 -12 -25 -27 -21 -43
-34 -38 -37 14 -2 36 -9 55 -29 76 -89 93 -258 131 -582 132 -220 0 -305 -9
-448 -46 -91 -24 -121 -39 -173 -86 l-39 -35 0 -118 0 -118 -25 -5 c-19 -3
-31 3 -48 23 -30 37 -188 140 -214 140 -4 0 -1 -5 7 -10 10 -6 11 -10 3 -10
-18 0 -16 -15 3 -34 9 -9 17 -22 18 -29 1 -6 5 -17 9 -24 4 -7 -18 1 -49 17
-38 20 -71 30 -101 30 -54 0 -105 -24 -96 -46 4 -12 8 -13 22 -2 40 32 90 50
76 28 -3 -5 2 -10 13 -10 21 0 65 -42 69 -68 10 -64 1 -112 -22 -112 -7 0 -23
-8 -35 -18 l-22 -18 25 1 c28 0 69 33 134 108 23 26 44 44 47 38 4 -5 -22 -36
-55 -68 -54 -51 -119 -135 -119 -153 0 -4 12 -12 27 -19 25 -12 30 -9 87 48
57 57 59 61 43 79 -37 41 -7 70 39 37 19 -13 23 -12 49 15 15 16 35 28 44 28
9 0 25 3 36 7 11 5 0 -10 -25 -33 -25 -23 -48 -41 -52 -42 -5 0 -8 -6 -8 -14
0 -8 -10 -22 -22 -30 -37 -26 -34 -8 7 34 21 22 37 42 34 45 -3 2 -47 -40 -98
-95 -77 -82 -102 -103 -148 -120 -59 -22 -82 -19 -61 8 10 13 7 13 -9 -1 -12
-11 -19 -25 -16 -33 6 -17 5 -17 40 -3 15 6 43 12 61 15 l34 4 -25 -30 c-14
-16 -28 -39 -32 -49 -4 -13 -29 -27 -78 -43 -40 -14 -80 -28 -91 -33 -17 -8
-17 -6 -2 21 9 16 24 40 33 52 15 21 12 21 -29 -7 -72 -49 -124 -112 -141
-172 -10 -34 -32 -73 -60 -106 -44 -51 -44 -51 -52 -154 -4 -57 -9 -140 -11
-184 -1 -44 -7 -190 -14 -325 -10 -217 -9 -252 5 -310 27 -110 29 -371 6 -815
-55 -1051 -50 -1496 24 -2090 29 -225 53 -338 85 -390 26 -42 102 -110 150
-135 33 -17 36 -22 53 -105 60 -291 197 -612 376 -878 92 -138 175 -240 298
-368 57 -58 100 -109 97 -112 -3 -3 34 -39 83 -80 407 -346 841 -536 1378
-603 183 -24 498 -24 643 0 388 62 714 202 990 426 51 41 138 107 192 146 55
39 137 103 182 141 46 38 107 88 136 110 29 23 182 156 340 295 157 139 343
302 412 363 169 147 393 377 410 420 3 7 19 29 37 49 38 43 59 45 248 21 217
-27 1106 -124 1290 -141 275 -25 469 -5 581 61 93 55 234 178 309 271 17 21
42 51 58 67 15 15 27 31 27 34 0 3 10 16 23 27 69 68 130 163 130 204 0 6 5
12 10 12 6 0 8 3 4 6 -3 3 7 27 23 52 57 93 57 94 64 792 3 256 11 859 16
1340 13 987 9 1208 -22 1386 l-22 121 -79 -29 c-44 -16 -81 -27 -84 -25 -2 2
25 16 59 31 35 15 78 42 96 59 58 56 65 149 16 233 -21 38 -22 43 -8 55 24 20
64 -7 92 -61 27 -54 30 -23 3 36 -36 80 -120 123 -242 124 l-76 0 -23 50 c-57
121 -106 135 -635 191 -170 18 -312 34 -315 36 -2 2 15 41 38 87 93 185 94
282 9 706 -65 321 -89 422 -121 493 -52 116 -173 223 -301 265 -33 11 -162 37
-287 58 l-226 38 -6 28 -5 28 -34 -23 c-18 -12 -98 -70 -177 -127 -79 -58
-149 -103 -154 -101 -6 2 -54 8 -106 13 -100 10 -105 12 -97 25 3 5 54 4 113
-2 l107 -11 156 114 c86 62 157 117 159 121 3 8 -101 21 -169 21 -23 0 -48 -9
-72 -28 -36 -26 -40 -27 -125 -20 -48 3 -200 7 -338 7 -261 1 -246 3 -379 -43
-19 -7 -19 -6 -1 6 120 85 126 90 126 115 0 25 0 25 -27 8 -16 -10 -73 -50
-128 -90 -55 -39 -121 -86 -147 -103 l-48 -33 -115 3 c-63 2 -115 6 -115 10 0
18 41 24 110 17 41 -4 87 -8 101 -8 23 -1 172 96 319 208 l35 26 -55 7 c-137
16 -133 17 -282 -87z m550 -196 c-18 -12 -46 -11 -53 1 -3 5 9 9 30 8 23 -1
31 -4 23 -9z m-497 -81 c11 -17 0 -30 -20 -23 -12 5 -13 3 -5 -5 9 -9 17 -8
33 2 11 7 21 16 21 21 0 4 -4 5 -10 2 -5 -3 -10 -1 -10 5 0 8 16 9 53 5 28 -3
72 -7 97 -8 25 -1 50 -5 55 -8 6 -4 34 -6 63 -5 29 1 55 -1 58 -5 2 -4 13 -5
24 -2 12 3 20 0 20 -6 0 -7 4 -10 9 -6 5 3 13 0 17 -6 5 -8 3 -9 -5 -5 -8 5
-14 0 -18 -13 -3 -11 -9 -19 -13 -16 -5 3 -6 15 -2 27 5 19 4 20 -10 8 -9 -8
-13 -21 -11 -27 3 -7 0 -13 -7 -13 -8 0 -10 9 -6 24 4 15 1 28 -6 32 -7 5 -9
2 -6 -7 3 -8 0 -20 -7 -26 -10 -10 -14 -9 -19 3 -3 9 -11 12 -17 8 -8 -4 -9
-3 -5 4 9 16 -7 15 -22 0 -9 -9 -12 -9 -12 3 0 12 -1 12 -9 -1 -6 -8 -8 -18
-5 -22 8 -12 -60 4 -68 16 -5 7 -8 6 -8 -4 0 -13 -2 -13 -9 0 -6 8 -7 18 -4
24 3 5 1 6 -5 2 -7 -4 -12 -2 -12 3 0 6 -5 11 -11 11 -7 0 -5 -9 5 -24 l15
-24 -97 4 c-59 2 -98 8 -101 15 -2 8 -5 8 -10 1 -5 -9 -174 -16 -269 -13 -9 1
-11 8 -6 24 4 12 7 28 7 36 0 11 29 13 170 8 118 -5 173 -10 178 -19z m519 2
c0 -7 7 -7 20 0 12 6 31 8 43 4 20 -7 19 -8 -13 -16 -44 -10 -164 1 -135 13
29 11 85 11 85 -1z m450 -34 c0 -14 -5 -28 -10 -31 -13 -8 -24 20 -16 40 9 24
26 17 26 -9z m-523 -21 c-13 -9 -14 -14 -4 -24 9 -10 5 -10 -17 0 l-28 13 26
9 c15 5 23 13 20 19 -5 7 -2 8 6 3 10 -6 10 -10 -3 -20z m110 -17 c2 -18 0
-20 -7 -8 -8 12 -10 13 -10 1 0 -8 -3 -11 -6 -8 -4 4 -1 13 6 22 16 19 15 19
17 -7z m-73 -3 c-4 -8 -11 -15 -16 -15 -6 0 -5 6 2 15 7 8 14 15 16 15 2 0 1
-7 -2 -15z m36 -9 c0 -3 -4 -8 -10 -11 -5 -3 -10 -1 -10 4 0 6 5 11 10 11 6 0
10 -2 10 -4z m473 -23 c-7 -2 -21 -2 -30 0 -10 3 -4 5 12 5 17 0 24 -2 18 -5z
m-1472 -23 c5 0 9 -4 9 -10 0 -5 -6 -7 -13 -4 -8 3 -19 -1 -26 -9 -9 -12 -7
-16 9 -20 11 -3 23 -1 26 4 3 6 15 7 25 4 16 -5 20 -3 17 11 -2 9 4 19 12 21
11 3 12 2 2 -5 -9 -6 -6 -12 14 -21 23 -10 30 -9 49 9 21 20 35 18 35 -4 0 -6
-4 -5 -9 2 -11 19 -33 -10 -34 -46 0 -15 -2 -21 -4 -14 -3 6 -9 12 -14 12 -4
0 -6 -7 -2 -15 3 -9 11 -14 17 -12 6 2 17 -3 24 -12 8 -9 11 -11 8 -4 -4 6 3
14 14 18 11 3 20 11 20 16 0 12 -7 11 -31 -1 -20 -11 -26 3 -11 27 14 22 54
-14 46 -40 -6 -18 -4 -20 7 -11 8 6 30 10 51 9 29 -2 35 1 32 14 -2 9 3 1 11
-18 10 -20 12 -36 7 -40 -6 -3 -3 -12 6 -21 14 -13 15 -12 9 3 -7 18 8 24 18
7 5 -8 11 -7 21 1 10 8 11 15 4 24 -13 16 1 27 20 15 11 -7 11 -13 -3 -34 -9
-14 -17 -31 -17 -38 0 -7 8 1 16 19 18 36 54 72 54 55 0 -7 -4 -12 -9 -12 -5
0 -12 -7 -15 -16 -4 -10 -2 -13 7 -7 6 4 30 8 51 8 25 0 41 5 44 14 3 10 -1
12 -17 8 -23 -6 -29 8 -7 16 8 3 24 -5 37 -19 13 -14 17 -24 10 -24 -16 0 -9
-25 7 -26 25 -3 26 -5 9 -15 -9 -6 -15 -15 -11 -20 3 -6 12 -2 21 10 8 12 22
21 33 21 16 0 17 -3 7 -31 -10 -27 -10 -32 7 -45 11 -7 16 -17 12 -21 -11 -11
-48 37 -42 54 3 7 1 13 -4 13 -6 0 -10 -7 -10 -15 0 -8 -4 -15 -9 -15 -5 0 -7
-9 -4 -19 4 -16 0 -20 -17 -18 -19 1 -19 3 -5 13 15 11 15 13 -2 23 -16 9 -16
13 -5 31 7 12 11 25 7 28 -3 4 -10 0 -15 -8 -10 -16 -11 -15 -29 15 -11 18
-12 18 -7 1 4 -10 1 -25 -5 -33 -10 -11 -9 -18 5 -31 16 -16 17 -15 11 11 -10
37 0 35 14 -3 6 -18 6 -28 1 -25 -6 4 -10 2 -10 -4 0 -5 5 -13 12 -17 8 -5 6
-11 -6 -20 -11 -8 -13 -14 -7 -19 6 -3 11 -2 11 4 0 6 6 8 14 5 8 -3 17 0 21
6 5 8 12 5 22 -7 13 -17 14 -16 8 10 -3 15 -3 27 0 27 13 0 55 -33 55 -43 0
-5 -9 -2 -20 8 -20 18 -29 8 -10 -11 6 -6 2 -10 -13 -10 -12 0 -25 3 -28 8 -3
4 -15 -1 -26 -11 -11 -11 -24 -17 -29 -13 -4 4 -4 -1 -1 -10 11 -31 -2 -19
-17 15 l-15 32 6 -31 c4 -25 0 -35 -18 -48 -13 -9 -18 -16 -12 -16 6 0 18 6
26 14 9 10 18 11 28 4 10 -7 11 -11 2 -14 -7 -3 -9 -12 -6 -20 3 -8 -2 -22
-10 -32 -8 -9 -19 -30 -23 -46 -7 -27 -8 -28 -20 -11 -8 11 -14 13 -14 7 0
-19 4 -27 13 -24 9 3 9 -2 1 -23 -6 -13 -9 -14 -16 -3 -6 9 -7 5 -3 -12 l7
-25 -22 24 c-17 17 -19 25 -11 31 7 4 12 11 12 16 0 5 7 26 16 46 11 25 19 34
24 26 11 -17 21 -5 13 16 -9 24 -21 12 -55 -56 -28 -56 -29 -61 -14 -78 11
-12 13 -20 6 -25 -6 -3 -14 1 -17 10 -6 14 -8 13 -20 -4 -14 -19 -10 -51 7
-51 5 0 9 7 9 16 0 16 25 15 25 -2 0 -5 6 -18 13 -29 9 -14 15 -16 18 -8 4 10
11 10 25 2 15 -7 24 -7 34 1 8 7 15 7 19 1 4 -5 -1 -11 -11 -13 -15 -3 -15 -4
1 -20 10 -10 23 -18 29 -18 7 0 6 4 -3 10 -8 5 -11 12 -7 16 3 4 13 1 22 -6
11 -9 15 -9 15 -1 0 7 5 9 11 5 8 -4 1 -12 -17 -22 -16 -8 -32 -20 -36 -26 -5
-7 -8 -4 -8 7 0 11 -4 15 -12 11 -6 -4 -8 -3 -5 3 4 6 0 16 -8 23 -8 7 -15 9
-15 5 0 -4 -7 -2 -15 5 -10 8 -15 9 -15 1 0 -6 9 -16 20 -23 21 -13 28 -48 10
-48 -5 0 -10 10 -10 21 0 19 -2 20 -17 8 -15 -12 -16 -12 -10 3 4 12 0 21 -14
28 -11 6 -17 15 -14 21 4 5 1 9 -4 9 -11 0 -14 -11 -8 -27 1 -5 5 -7 9 -6 3 1
9 -4 12 -12 3 -10 0 -12 -12 -8 -15 6 -15 4 2 -15 10 -12 23 -19 27 -16 5 3 6
-2 2 -11 -4 -12 -8 -13 -13 -5 -4 7 -13 9 -19 6 -6 -4 -9 -12 -6 -17 9 -13 43
-11 48 4 3 6 4 2 4 -11 -1 -17 -6 -22 -19 -19 -10 3 -18 1 -18 -4 0 -5 5 -9
10 -9 6 0 10 -5 10 -11 0 -5 -4 -8 -9 -5 -5 3 -8 -6 -8 -20 0 -24 1 -23 21 12
20 36 41 47 41 22 0 -7 -5 -12 -12 -11 -7 2 -17 -7 -24 -18 -9 -19 -8 -20 10
-14 17 5 20 3 15 -12 -6 -16 -5 -15 9 2 9 11 17 15 17 8 0 -6 3 -19 7 -29 5
-13 3 -15 -8 -8 -20 12 -38 14 -45 3 -3 -5 -13 -5 -25 1 -14 8 -19 7 -19 -2 0
-10 -3 -9 -9 1 -7 11 -13 12 -23 4 -14 -11 -50 -14 -43 -3 2 4 -12 6 -33 6
-20 -1 -43 3 -51 9 -10 7 -15 6 -18 -2 -3 -7 -9 -13 -14 -13 -6 0 -7 5 -4 10
3 6 1 10 -4 10 -6 0 -11 -4 -11 -9 0 -4 -39 -7 -87 -6 -49 1 -92 -1 -98 -4 -5
-3 -40 -6 -78 -7 -37 -1 -74 -7 -82 -14 -8 -7 -15 -8 -15 -3 0 11 -26 10 -52
-2 -10 -4 -24 -5 -32 -2 -8 3 -22 0 -32 -8 -10 -7 -30 -11 -45 -8 -20 3 -37
-5 -66 -29 l-38 -32 30 34 c17 19 32 37 35 40 3 3 11 23 19 45 7 22 22 58 31
80 10 22 30 69 45 105 56 134 68 159 76 154 5 -3 6 1 3 9 -3 8 26 95 65 193
38 99 80 212 92 252 17 52 27 71 37 67 7 -3 18 -5 23 -5z m257 -55 c-3 -3 -9
2 -12 12 -6 14 -5 15 5 6 7 -7 10 -15 7 -18z m52 15 c0 -5 -4 -10 -10 -10 -5
0 -10 5 -10 10 0 6 5 10 10 10 6 0 10 -4 10 -10z m1190 0 c-8 -5 -26 -10 -40
-10 -20 0 -22 2 -10 10 8 5 26 10 40 10 20 0 22 -2 10 -10z m-1300 -10 c0 -5
-2 -10 -4 -10 -3 0 -8 5 -11 10 -3 6 -1 10 4 10 6 0 11 -4 11 -10z m141 -7
c13 -16 12 -17 -3 -4 -10 7 -18 15 -18 17 0 8 8 3 21 -13z m1269 -3 c0 -5 7
-7 17 -3 13 5 15 2 11 -15 -4 -12 -2 -22 3 -22 5 0 9 7 9 15 0 21 12 19 40 -7
20 -18 23 -19 17 -4 -11 28 1 36 33 19 38 -18 39 -26 3 -13 -26 9 -27 9 -9 -5
19 -15 19 -16 -6 -42 -27 -29 -71 -117 -72 -143 -1 -9 -11 -15 -28 -15 -15 -1
-24 3 -21 7 2 5 13 6 24 3 24 -8 25 4 2 21 -10 7 -14 16 -10 20 4 5 12 3 16
-4 5 -8 8 -1 8 17 0 29 -1 29 -26 14 -21 -12 -23 -12 -8 0 25 21 21 28 -9 17
-20 -8 -25 -7 -21 2 2 7 10 12 16 11 20 -5 12 14 -14 31 -14 9 -31 14 -38 11
-7 -4 -3 1 7 9 21 17 41 21 32 7 -3 -5 1 -14 8 -20 21 -17 30 4 10 23 -32 33
-64 16 -99 -54 -23 -45 -32 -22 -10 24 26 55 115 129 115 96z m-1386 -15 c-4
-8 -8 -15 -10 -15 -2 0 -4 7 -4 15 0 8 4 15 10 15 5 0 7 -7 4 -15z m31 -5 c3
-5 1 -10 -4 -10 -6 0 -11 5 -11 10 0 6 2 10 4 10 3 0 8 -4 11 -10z m186 -17
c13 -16 12 -17 -3 -4 -10 7 -18 15 -18 17 0 8 8 3 21 -13z m-109 -5 c-8 -8 -8
-17 -1 -32 9 -18 7 -18 -11 3 -16 19 -18 26 -8 32 19 13 34 11 20 -3z m319
-55 c13 -16 12 -17 -3 -4 -10 7 -18 15 -18 17 0 8 8 3 21 -13z m19 -56 c0 -5
-6 -4 -14 2 -11 9 -15 9 -20 -1 -3 -7 -3 -3 0 10 4 15 0 24 -10 28 -9 3 -16
11 -16 17 0 6 14 -2 30 -18 17 -16 30 -33 30 -38z m910 38 c0 -2 -10 -9 -22
-15 -22 -11 -22 -10 -4 4 21 17 26 19 26 11z m-968 -42 c-6 -3 -10 -9 -6 -14
3 -5 0 -9 -6 -9 -7 0 -9 7 -6 16 3 9 6 21 6 27 0 7 5 6 13 -2 10 -11 9 -14 -1
-18z m868 -13 c0 -5 -5 -10 -11 -10 -5 0 -7 5 -4 10 3 6 8 10 11 10 2 0 4 -4
4 -10z m-810 -10 c0 -5 -2 -10 -4 -10 -2 0 -12 -3 -22 -7 -16 -6 -17 -5 -4 10
17 19 30 22 30 7z m156 -5 c17 -16 14 -18 -10 -9 -9 3 -16 10 -16 15 0 13 9
11 26 -6z m-101 -4 c3 -5 1 -12 -5 -16 -5 -3 -10 1 -10 9 0 18 6 21 15 7z
m155 -32 c0 -6 -4 -7 -10 -4 -5 3 -10 11 -10 16 0 6 5 7 10 4 6 -3 10 -11 10
-16z m704 5 c5 -14 4 -15 -9 -4 -17 14 -19 20 -6 20 5 0 12 -7 15 -16z m-1064
-4 c0 -5 -5 -10 -11 -10 -5 0 -7 5 -4 10 3 6 8 10 11 10 2 0 4 -4 4 -10z m130
6 c0 -3 -4 -8 -10 -11 -5 -3 -10 -1 -10 4 0 6 5 11 10 11 6 0 10 -2 10 -4z
m154 -20 c-3 -9 -10 -16 -15 -16 -5 0 -4 9 3 20 14 22 21 20 12 -4z m666 14
c0 -5 -5 -10 -11 -10 -5 0 -7 5 -4 10 3 6 8 10 11 10 2 0 4 -4 4 -10z m-778
-22 c-7 -7 -12 -8 -12 -2 0 14 12 26 19 19 2 -3 -1 -11 -7 -17z m1506 -4 c-7
-15 -14 -21 -16 -15 -2 7 2 18 8 26 18 22 21 18 8 -11z m-67 -25 l-10 -24 0
26 c-1 14 2 29 6 33 12 12 14 -9 4 -35z m-1458 0 c4 -16 3 -18 -9 -8 -7 6 -11
15 -8 20 8 13 11 11 17 -12z m-45 -4 c2 -2 -12 -32 -32 -68 -20 -35 -36 -67
-36 -72 0 -4 18 9 41 30 24 22 47 34 56 31 8 -3 27 -6 43 -6 22 0 28 -4 27
-19 0 -11 -5 -17 -10 -14 -11 6 -38 -17 -32 -27 3 -5 0 -12 -6 -16 -8 -4 -9
-3 -5 4 11 17 -5 14 -26 -5 -14 -12 -18 -31 -18 -80 l0 -63 -34 0 c-19 0 -41
7 -50 15 -19 20 -32 19 -16 0 14 -17 8 -31 -9 -20 -15 9 -14 30 3 44 8 6 11
22 8 37 -3 17 -7 22 -12 13 -5 -7 -6 -19 -2 -28 3 -9 2 -13 -3 -9 -4 4 -16 -3
-25 -15 -16 -20 -43 -25 -90 -18 -3 1 -6 12 -6 26 -1 14 2 23 6 20 9 -6 133
235 126 242 -2 3 -7 -5 -11 -16 -3 -12 -11 -21 -16 -21 -10 0 -5 13 13 36 8
10 106 9 116 -1z m216 -38 c-3 -9 -11 -17 -16 -17 -6 0 -5 6 2 15 6 8 8 20 4
27 -5 10 -4 10 5 2 6 -6 9 -18 5 -27z m783 11 c-3 -8 -6 -5 -6 6 -1 11 2 17 5
13 3 -3 4 -12 1 -19z m-181 -36 c-11 -10 -15 4 -8 28 l7 25 3 -23 c2 -13 1
-26 -2 -30z m-786 7 c0 -6 -4 -7 -10 -4 -5 3 -10 11 -10 16 0 6 5 7 10 4 6 -3
10 -11 10 -16z m1620 11 c0 -5 -5 -10 -12 -10 -6 0 -20 -7 -30 -17 -10 -9 -18
-11 -18 -5 0 11 38 42 52 42 5 0 8 -4 8 -10z m-1355 -64 c77 -33 82 -98 12
-171 -34 -35 -51 -44 -90 -50 -73 -11 -124 9 -147 57 -10 21 -14 36 -9 32 8
-5 13 18 12 53 -1 7 3 11 7 8 4 -3 15 6 23 19 19 29 92 66 130 66 15 0 43 -6
62 -14z m512 -28 c-3 -7 -5 -2 -5 12 0 14 2 19 5 13 2 -7 2 -19 0 -25z m857
-15 c-25 -23 -44 -29 -44 -15 0 4 13 13 29 20 21 9 28 18 25 30 -5 15 -4 15 5
2 9 -12 5 -20 -15 -37z m-1126 -3 c2 -4 19 -4 39 0 41 10 80 -4 88 -32 7 -20
-72 -177 -93 -185 -6 -3 -28 -2 -47 1 l-34 7 31 64 c22 45 29 68 22 75 -19 19
-40 0 -70 -63 -30 -62 -30 -62 -72 -61 -23 0 -44 3 -47 6 -3 3 17 51 46 107
l51 102 42 -6 c22 -4 42 -11 44 -15z m263 -27 c-12 -20 -14 -14 -5 12 4 9 9
14 11 11 3 -2 0 -13 -6 -23z m-2697 -42 c13 -5 16 -10 8 -15 -6 -4 -21 -2 -32
4 -13 7 -20 7 -20 0 0 -5 -7 -10 -15 -10 -8 0 -15 4 -15 9 0 5 -8 12 -17 14
-10 3 2 5 27 5 25 0 54 -3 64 -7z m2696 -11 c0 -11 -4 -20 -9 -20 -5 0 -7 9
-4 20 3 11 7 20 9 20 2 0 4 -9 4 -20z m-3270 -10 c0 -5 -2 -10 -4 -10 -3 0 -8
5 -11 10 -3 6 -1 10 4 10 6 0 11 -4 11 -10z m2193 -5 c-3 -9 -8 -14 -10 -11
-3 3 -2 9 2 15 9 16 15 13 8 -4z m-2093 -5 c0 -5 -7 -10 -16 -10 -8 0 -12 5
-9 10 3 6 10 10 16 10 5 0 9 -4 9 -10z m3240 0 c0 -5 -5 -10 -11 -10 -5 0 -7
5 -4 10 3 6 8 10 11 10 2 0 4 -4 4 -10z m80 -40 c0 -6 -9 -2 -20 7 -11 10 -20
19 -20 21 0 1 9 -2 20 -8 11 -6 20 -15 20 -20z m-920 16 c0 -3 -4 -8 -10 -11
-5 -3 -10 -1 -10 4 0 6 5 11 10 11 6 0 10 -2 10 -4z m770 -6 c0 -5 -4 -10 -10
-10 -5 0 -10 5 -10 10 0 6 5 10 10 10 6 0 10 -4 10 -10z m870 -10 c-6 -11 -16
-18 -21 -14 -6 3 -3 12 8 20 24 18 26 17 13 -6z m-3280 0 c0 -5 9 -10 20 -10
11 0 20 -4 20 -9 0 -12 -84 -22 -88 -10 -2 5 -12 9 -23 9 -10 0 -19 5 -19 10
0 13 37 13 45 0 4 -6 11 -7 17 -4 6 4 5 10 -3 15 -10 6 -8 9 9 9 12 0 22 -4
22 -10z m-1100 -6 c0 -10 -28 -34 -39 -34 -16 0 -13 11 7 26 18 14 32 18 32 8z
m340 -4 c-14 -4 -34 -8 -45 -8 -16 0 -15 2 5 8 14 4 34 8 45 8 16 0 15 -2 -5
-8z m2424 -6 c3 -8 2 -12 -4 -9 -6 3 -10 10 -10 16 0 14 7 11 14 -7z m-2704
-9 c-7 -8 -20 -15 -29 -15 -13 1 -13 3 3 15 26 19 42 19 26 0z m3442 -15 c-2
-16 -6 -30 -8 -30 -2 0 -4 14 -4 30 0 17 4 30 8 30 5 0 7 -13 4 -30z m-3376 5
c-11 -8 -27 -15 -35 -14 -11 0 -12 2 -3 6 6 2 10 9 6 14 -3 5 7 9 23 9 27 -1
27 -1 9 -15z m2564 -58 c0 -8 -4 -6 -10 3 -8 12 -12 12 -18 2 -7 -10 -12 -9
-23 4 -9 12 -10 15 -1 10 6 -4 12 -2 12 4 0 8 6 8 20 0 11 -6 20 -16 20 -23z
m-1925 3 c104 -11 138 -21 122 -37 -4 -3 -17 -1 -30 5 -12 6 -58 13 -102 16
-117 9 -165 17 -160 27 3 4 18 6 33 4 15 -3 77 -9 137 -15z m1792 -37 c-13
-13 -20 -14 -29 -5 -6 6 -8 15 -4 19 4 4 11 1 16 -7 8 -12 10 -10 10 10 0 19
3 21 12 12 10 -9 8 -16 -5 -29z m40 15 c-2 -12 -9 -24 -15 -26 -15 -5 -15 3 0
28 16 25 19 25 15 -2z m906 7 c4 -8 2 -17 -4 -21 -6 -3 -8 -12 -5 -20 3 -7 1
-16 -4 -19 -14 -9 -12 29 2 43 9 9 9 12 0 12 -7 0 -12 5 -12 10 0 15 17 12 23
-5z m-2387 -12 c19 3 34 2 34 -4 0 -8 -11 -11 -57 -13 -10 -1 -21 -5 -24 -10
-10 -13 -29 3 -29 25 0 17 3 18 21 8 12 -6 37 -9 55 -6z m1629 7 c3 -6 -1 -7
-9 -4 -18 7 -21 14 -7 14 6 0 13 -4 16 -10z m-2611 -16 c9 -8 20 -12 26 -9 5
3 10 2 10 -3 0 -6 -15 -10 -34 -10 -25 0 -33 4 -29 13 3 10 -3 13 -24 9 -21
-3 -24 -2 -13 6 22 14 46 12 64 -6z m2680 0 c3 -8 2 -12 -4 -9 -6 3 -10 10
-10 16 0 14 7 11 14 -7z m746 12 c0 -2 -8 -10 -17 -17 -16 -13 -17 -12 -4 4
13 16 21 21 21 13z m-3506 -21 c25 -19 18 -26 -33 -28 -29 -1 -46 4 -59 17
-16 18 -16 18 3 11 11 -4 33 -10 50 -13 27 -4 29 -3 16 12 -17 20 -3 21 23 1z
m791 -4 c-16 -14 -101 -31 -152 -30 -46 1 -45 2 26 15 40 7 76 16 79 19 3 3
17 5 31 5 15 0 21 -4 16 -9z m1870 0 c3 -5 1 -12 -5 -16 -5 -3 -10 1 -10 9 0
18 6 21 15 7z m903 -12 c10 -13 9 -19 -5 -30 -16 -13 -17 -12 -4 3 11 15 11
19 -3 24 -9 3 -13 10 -10 16 3 5 7 8 8 6 1 -2 7 -10 14 -19z m-3243 -4 l60
-15 -59 5 c-32 3 -66 10 -75 15 -24 14 1 12 74 -5z m2230 -5 c-7 -11 -45 -33
-45 -26 0 2 7 12 16 20 17 18 39 22 29 6z m28 -23 c-3 -5 1 -14 8 -19 12 -8
11 -9 -1 -5 -8 2 -16 17 -17 33 -2 20 0 25 7 14 5 -8 6 -18 3 -23z m132 3 c3
-5 1 -10 -4 -10 -6 0 -11 5 -11 10 0 6 2 10 4 10 3 0 8 -4 11 -10z m-2325 -17
c3 -2 -6 -12 -19 -22 -26 -20 -135 -29 -146 -12 -3 6 13 9 42 7 26 -2 33 -1
16 1 -38 5 -40 10 -15 29 12 10 32 12 67 8 28 -3 52 -8 55 -11z m383 3 c22
-17 13 -24 -44 -31 -34 -4 -39 -3 -21 4 33 15 27 20 -20 14 -30 -4 -40 -2 -33
5 6 6 26 12 45 15 19 2 40 4 45 5 6 1 18 -5 28 -12z m1756 -13 c-4 -23 3 -31
24 -27 20 4 20 4 2 -5 -12 -5 -25 -5 -32 1 -15 12 -17 38 -3 38 6 0 9 -3 9 -7z
m118 -8 c0 -10 -6 -14 -14 -10 -10 3 -13 -1 -8 -15 5 -17 3 -19 -16 -11 -13 4
-24 13 -25 20 -1 6 0 7 3 1 7 -15 23 -12 23 4 0 13 12 23 31 25 3 1 6 -6 6
-14z m786 0 c4 -8 2 -17 -3 -20 -6 -4 -10 3 -10 14 0 25 6 27 13 6z m-4202
-22 c13 -17 13 -17 -6 -3 -11 8 -22 16 -24 17 -2 2 0 3 6 3 6 0 17 -8 24 -17z
m-37 -9 c9 -24 7 -29 -6 -16 -17 17 -38 15 -38 -3 0 -12 -4 -14 -19 -5 -16 8
-22 6 -29 -7 -9 -15 -12 -15 -27 -3 -15 13 -11 16 42 31 32 9 61 17 64 18 4 0
10 -6 13 -15z m1759 9 c-7 -2 -19 -2 -25 0 -7 3 -2 5 12 5 14 0 19 -2 13 -5z
m30 -20 c-7 -2 -19 -2 -25 0 -7 3 -2 5 12 5 14 0 19 -2 13 -5z m2456 -31 c-5
-2 -9 -13 -9 -25 -1 -21 -1 -21 -12 -3 -8 15 -8 21 0 24 9 3 9 9 1 25 -12 22
-12 22 8 2 11 -11 16 -21 12 -23z m-3479 13 c-7 -9 -15 -13 -19 -10 -3 3 1 10
9 15 21 14 24 12 10 -5z m60 0 c0 -1 -7 -8 -15 -15 -13 -10 -15 -9 -15 8 0 15
5 20 15 16 8 -4 15 -7 15 -9z m917 9 c-3 -3 -12 -4 -19 -1 -8 3 -5 6 6 6 11 1
17 -2 13 -5z m1884 -11 c13 -16 12 -17 -3 -4 -10 7 -18 15 -18 17 0 8 8 3 21
-13z m-3771 -3 c0 -5 -9 -10 -20 -10 -11 0 -20 5 -20 10 0 6 9 10 20 10 11 0
20 -4 20 -10z m1030 -5 c0 -1 -9 -10 -20 -20 -20 -18 -20 -17 -20 8 0 20 4 24
20 20 11 -3 20 -6 20 -8z m44 -26 c-14 -15 -19 -17 -26 -7 -15 24 -8 35 17 30
25 -4 25 -5 9 -23z m856 27 c0 -11 -19 -15 -25 -6 -3 5 1 10 9 10 9 0 16 -2
16 -4z m-2142 -16 c6 0 12 -6 12 -14 0 -8 6 -16 13 -19 6 -2 8 -8 4 -13 -5 -5
-13 -1 -19 9 -5 11 -24 25 -42 33 -25 12 -26 14 -6 10 14 -3 31 -6 38 -6z
m1352 -7 c0 -2 -6 -11 -14 -18 -12 -12 -15 -12 -20 1 -10 26 -7 32 14 27 11
-3 20 -7 20 -10z m730 13 c0 -11 -19 -15 -25 -6 -3 5 1 10 9 10 9 0 16 -2 16
-4z m2590 0 c0 -3 -4 -8 -10 -11 -5 -3 -10 -1 -10 4 0 6 5 11 10 11 6 0 10 -2
10 -4z m-4775 -26 c17 -7 16 -9 -9 -9 -28 -1 -29 -2 -10 -15 18 -14 18 -15 -9
-25 -19 -7 -34 -8 -45 -1 -14 8 -13 9 8 10 19 0 21 3 12 12 -17 17 -15 26 6
31 24 7 25 7 47 -3z m1505 -5 c-7 -8 -14 -15 -15 -15 -2 0 -5 7 -9 15 -4 10 1
15 16 15 17 0 18 -2 8 -15z m-1590 -5 c0 -15 -61 -50 -87 -50 -36 0 -36 18 -1
40 35 21 88 27 88 10z m1648 -15 c-3 -3 -9 2 -12 12 -6 14 -5 15 5 6 7 -7 10
-15 7 -18z m362 21 c0 -3 -4 -8 -10 -11 -5 -3 -10 -1 -10 4 0 6 5 11 10 11 6
0 10 -2 10 -4z m-1880 -27 c-11 -20 -37 -36 -45 -27 -8 8 26 48 41 48 12 0 12
-4 4 -21z m4850 17 c0 -2 -8 -10 -17 -17 -16 -13 -17 -12 -4 4 13 16 21 21 21
13z m-3670 -21 c-7 -9 -15 -13 -17 -11 -7 7 7 26 19 26 6 0 6 -6 -2 -15z m60
0 c0 -1 -7 -8 -15 -15 -13 -10 -15 -9 -15 8 0 15 5 20 15 16 8 -4 15 -7 15 -9z
m3397 -7 c-3 -8 -6 -5 -6 6 -1 11 2 17 5 13 3 -3 4 -12 1 -19z m-3337 -3 c0
-1 -9 -10 -20 -20 -20 -18 -20 -17 -20 8 0 20 4 24 20 20 11 -3 20 -6 20 -8z
m50 -12 c0 -2 -6 -11 -14 -18 -12 -12 -15 -12 -20 1 -10 26 -7 32 14 27 11 -3
20 -7 20 -10z m-1660 -33 c-45 -37 -55 -27 -12 12 19 16 37 27 40 23 4 -4 -9
-19 -28 -35z m360 35 c0 -2 -10 -9 -22 -15 -22 -11 -22 -10 -4 4 21 17 26 19
26 11z m1349 -22 c-10 -11 -14 -11 -20 -1 -14 21 -10 26 11 21 16 -4 18 -8 9
-20z m64 -9 c-5 -13 -23 -20 -23 -10 0 2 -3 11 -6 19 -4 12 0 14 15 10 12 -3
17 -11 14 -19z m3182 16 c-3 -5 -11 -10 -16 -10 -6 0 -7 5 -4 10 3 6 11 10 16
10 6 0 7 -4 4 -10z m-3131 -16 c3 -8 2 -12 -4 -9 -6 3 -10 10 -10 16 0 14 7
11 14 -7z m-329 -23 c-3 -6 -11 -11 -17 -11 -6 0 -6 6 2 15 14 17 26 13 15 -4z
m3512 -3 c-3 -8 -6 -5 -6 6 -1 11 2 17 5 13 3 -3 4 -12 1 -19z m-3457 -3 c0
-1 -7 -8 -15 -15 -13 -10 -15 -9 -15 8 0 15 5 20 15 16 8 -4 15 -7 15 -9z
m-1427 -2 c-7 -2 -19 -2 -25 0 -7 3 -2 5 12 5 14 0 19 -2 13 -5z m657 -38 c11
-13 10 -14 -6 -8 -17 6 -17 5 -5 -10 7 -9 11 -17 8 -17 -3 0 -19 18 -37 39
l-31 40 30 -15 c16 -8 35 -21 41 -29z m814 39 c13 -5 14 -9 5 -20 -16 -20 -29
-17 -29 6 0 22 1 23 24 14z m-1030 -29 c-22 -16 -34 -19 -34 -7 0 10 43 32 49
26 3 -2 -4 -11 -15 -19z m83 9 c4 -11 -1 -22 -12 -30 -21 -15 -85 -19 -85 -6
0 15 46 31 61 21 22 -14 36 -10 17 5 -22 16 -23 26 -3 26 9 0 18 -7 22 -16z
m1001 7 c10 -6 10 -10 -3 -21 -8 -7 -15 -10 -15 -7 0 3 -3 12 -6 21 -7 17 3
20 24 7z m60 -10 c10 -6 10 -10 -3 -21 -8 -7 -15 -10 -15 -7 0 3 -3 12 -6 21
-7 17 3 20 24 7z m56 -7 c8 -3 12 -12 9 -20 -7 -20 -20 -17 -26 6 -6 22 -5 23
17 14z m3291 -4 c3 -5 2 -10 -4 -10 -5 0 -13 5 -16 10 -3 6 -2 10 4 10 5 0 13
-4 16 -10z m-4594 -19 c-6 -10 -8 -20 -6 -23 2 -2 -5 -4 -16 -5 -19 -2 -19 -1
3 22 28 30 32 31 19 6z m1363 3 c3 -8 2 -12 -4 -9 -6 3 -10 10 -10 16 0 14 7
11 14 -7z m3326 12 c0 -2 -8 -10 -17 -17 -16 -13 -17 -12 -4 4 13 16 21 21 21
13z m-3650 -20 c0 -2 -8 -10 -17 -17 -16 -13 -17 -12 -4 4 13 16 21 21 21 13z
m-785 -16 c-3 -5 -12 -10 -18 -10 -7 0 -6 4 3 10 19 12 23 12 15 0z m835 1 c0
-5 -7 -11 -15 -15 -9 -3 -15 0 -15 9 0 8 7 15 15 15 8 0 15 -4 15 -9z m3640 5
c0 -3 -4 -8 -10 -11 -5 -3 -10 -1 -10 4 0 6 5 11 10 11 6 0 10 -2 10 -4z
m-3580 -9 c0 -2 -9 -12 -20 -22 -19 -18 -20 -17 -20 3 0 15 6 22 20 22 11 0
20 -2 20 -3z m-1872 -24 c-4 -20 -81 -48 -106 -38 -15 6 -13 10 11 31 34 29
101 35 95 7z m246 0 c3 -7 14 -13 24 -13 11 0 25 -7 32 -15 16 -20 14 -19 -55
9 -32 13 -52 25 -44 28 24 8 38 5 43 -9z m91 2 c44 -6 54 -10 41 -17 -10 -5
-25 -6 -34 -2 -21 9 -30 11 -64 12 -16 1 -28 7 -28 13 0 6 6 9 13 6 8 -3 40
-8 72 -12z m996 8 c-9 -4 -10 -7 -2 -12 8 -5 3 -16 -14 -35 -14 -15 -25 -30
-25 -34 0 -4 -19 -28 -42 -53 -74 -78 -118 -130 -118 -139 0 -5 -23 -33 -50
-63 -28 -30 -60 -67 -73 -83 -34 -44 -143 -134 -163 -134 -3 0 -14 -9 -26 -20
-12 -10 -25 -17 -30 -14 -4 3 -8 1 -8 -3 0 -5 -20 -19 -45 -31 -25 -12 -45
-18 -45 -14 0 4 13 13 28 20 16 6 38 21 50 32 12 12 22 18 22 14 0 -9 87 61
151 123 30 29 58 50 63 46 4 -4 5 -1 2 7 -6 15 119 174 241 309 32 35 62 70
66 77 4 8 13 14 20 13 8 0 7 -3 -2 -6z m589 -2 c0 -5 -7 -14 -15 -21 -8 -7
-15 -10 -15 -7 0 3 -3 12 -6 21 -4 12 0 16 15 16 12 0 21 -4 21 -9z m-1135
-19 c-3 -3 -11 0 -18 7 -9 10 -8 11 6 5 10 -3 15 -9 12 -12z m1195 9 c0 -5 -6
-14 -14 -20 -11 -9 -15 -7 -19 9 -4 15 0 20 14 20 10 0 19 -4 19 -9z m-931
-36 c-28 -28 -99 -60 -99 -45 0 5 7 10 16 10 18 0 75 37 87 58 5 7 12 11 15 7
3 -3 -5 -17 -19 -30z m989 23 c-6 -18 -25 -20 -31 -3 -5 10 0 15 14 15 12 0
19 -5 17 -12z m-1573 -18 c4 -6 -9 -10 -32 -9 -30 0 -34 2 -18 9 27 12 43 12
50 0z m655 -5 c0 -40 -94 -111 -136 -103 -12 2 -2 12 34 31 29 16 60 39 70 52
16 23 32 32 32 20z m-333 -55 c13 0 22 -4 18 -9 -5 -9 -49 -6 -67 5 -21 13 -5
-17 20 -37 26 -20 26 -21 3 -14 -13 4 -30 8 -37 9 -8 1 -20 8 -26 14 -7 7 -17
12 -23 12 -6 0 -20 7 -31 15 -18 15 -17 15 18 12 47 -6 53 1 25 24 -16 13 -8
11 27 -6 27 -14 60 -25 73 -25z m-1027 -74 c-38 -55 -60 -75 -60 -53 0 15 70
97 83 97 4 0 -7 -20 -23 -44z m3500 40 c0 -2 -7 -7 -16 -10 -8 -3 -12 -2 -9 4
6 10 25 14 25 6z m230 0 c0 -2 -7 -7 -16 -10 -8 -3 -12 -2 -9 4 6 10 25 14 25
6z m-3145 -45 c-3 -6 -11 -8 -17 -5 -8 5 -9 1 -4 -12 4 -10 4 -15 0 -11 -4 4
-19 0 -32 -9 -22 -14 -20 -10 9 24 19 23 38 37 43 32 4 -4 5 -13 1 -19z m3052
18 c-9 -6 -15 -14 -12 -20 4 -5 1 -9 -4 -9 -6 0 -11 5 -11 11 0 6 -7 8 -16 5
-9 -3 -12 -2 -9 5 4 6 13 8 21 5 8 -3 14 -1 14 4 0 6 8 10 18 10 16 -1 16 -1
-1 -11z m433 -19 c0 -5 -7 -10 -15 -10 -8 0 -15 5 -15 10 0 6 7 10 15 10 8 0
15 -4 15 -10z m58 3 c-10 -2 -26 -2 -35 0 -10 3 -2 5 17 5 19 0 27 -2 18 -5z
m-3370 -43 c4 0 18 -9 31 -21 14 -14 31 -19 47 -16 28 5 27 6 14 -29 -15 -37
-65 -99 -103 -126 l-32 -22 24 27 c21 23 22 27 7 27 -10 0 -14 5 -10 12 4 6 3
8 -3 5 -6 -4 -18 2 -28 13 -10 11 -24 20 -30 20 -7 0 -18 7 -25 15 -7 8 -16
12 -21 9 -5 -3 -9 0 -9 6 0 7 -7 10 -15 7 -8 -4 5 20 28 51 l42 58 37 -18 c20
-10 41 -18 46 -18z m2779 24 c-3 -3 -17 -7 -33 -10 -21 -3 -25 -2 -14 5 8 5
18 7 22 5 4 -3 8 0 8 6 0 6 5 8 11 5 6 -4 8 -9 6 -11z m444 5 c-14 -5 -28 -6
-33 -1 -4 4 7 9 25 9 30 2 31 2 8 -8z m-1831 -8 c0 -5 -9 -7 -20 -4 -11 3 -20
7 -20 9 0 2 9 4 20 4 11 0 20 -4 20 -9z m1719 -4 c-7 -6 -149 -35 -149 -31 0
8 55 26 100 33 42 7 59 6 49 -2z m61 9 c0 -2 -11 -6 -25 -8 -14 -3 -25 -1 -25
3 0 5 11 9 25 9 14 0 25 -2 25 -4z m-1703 -12 c-3 -3 -12 -4 -19 -1 -8 3 -5 6
6 6 11 1 17 -2 13 -5z m186 -21 c-7 -2 -19 -2 -25 0 -7 3 -2 5 12 5 14 0 19
-2 13 -5z m1707 -4 c0 -6 -6 -9 -14 -6 -9 4 -13 -2 -12 -17 1 -17 6 -22 19
-18 15 4 13 -1 -8 -22 -20 -20 -24 -31 -17 -38 8 -8 8 -17 1 -30 -13 -25 5
-58 34 -59 12 -1 -25 -5 -82 -10 -166 -13 -485 -88 -549 -130 -16 -10 -15 -10
1 -5 9 3 17 1 17 -5 0 -5 12 -7 28 -4 19 5 16 1 -14 -13 -23 -11 -52 -23 -65
-27 -13 -4 -73 -32 -134 -62 -183 -91 -348 -207 -465 -327 -57 -59 -96 -78
-66 -32 10 17 12 26 4 28 -13 5 142 148 232 214 95 70 179 120 320 191 69 35
114 62 100 60 -14 -1 -28 -6 -32 -12 -4 -5 -6 7 -5 28 3 30 0 37 -11 32 -12
-4 -13 -3 -2 10 10 12 16 13 29 3 8 -7 6 0 -7 16 -20 27 -22 53 -1 41 5 -4 9
-1 9 4 0 6 -5 11 -11 11 -6 0 -9 7 -5 15 3 8 1 15 -4 15 -6 0 -10 -5 -10 -11
0 -5 -4 -7 -10 -4 -5 3 -23 -1 -39 -10 -17 -8 -34 -15 -38 -15 -16 1 88 51
169 80 124 46 259 81 388 100 135 21 250 25 250 9z m-1657 -6 c-7 -2 -19 -2
-25 0 -7 3 -2 5 12 5 14 0 19 -2 13 -5z m57 3 c0 -3 -4 -8 -10 -11 -5 -3 -10
-1 -10 4 0 6 5 11 10 11 6 0 10 -2 10 -4z m1175 -6 c-3 -5 -15 -10 -25 -10
-11 0 -29 -4 -42 -9 -52 -21 -160 -52 -164 -48 -6 5 65 36 96 41 14 3 25 5 25
6 0 3 89 27 103 29 7 0 10 -3 7 -9z m-2769 -17 c0 -11 6 -17 17 -17 9 1 17 -2
17 -7 0 -4 -8 -13 -17 -18 -25 -14 -7 -14 20 1 19 10 20 9 10 -4 -7 -8 -9 -19
-5 -23 4 -5 -2 -5 -13 -2 -18 6 -18 6 -3 -6 12 -9 14 -17 7 -30 -6 -9 -7 -22
-3 -29 5 -8 2 -9 -10 -5 -9 4 -14 3 -11 -2 3 -5 0 -13 -6 -16 -5 -4 -8 -13 -5
-21 3 -8 -1 -14 -9 -14 -9 0 -15 -9 -15 -22 0 -12 -3 -18 -7 -15 -7 8 -39 -34
-35 -45 1 -5 -3 -8 -9 -8 -6 0 -8 9 -3 23 5 17 -1 14 -30 -16 -32 -35 -41 -38
-37 -14 0 4 -9 7 -20 7 -18 0 -19 -2 -9 -15 11 -13 10 -14 -5 -8 -15 5 -17 3
-12 -11 5 -12 3 -15 -5 -9 -22 13 -49 11 -44 -4 4 -10 -1 -12 -19 -7 -13 3
-30 2 -37 -2 -20 -13 -40 -14 -57 -3 -12 8 -11 9 7 4 15 -4 22 -2 22 7 0 10 3
9 10 -2 9 -15 11 -13 14 13 1 7 11 11 24 9 20 -3 22 0 16 22 -4 16 -2 26 5 26
6 0 8 -7 5 -15 -4 -8 -1 -15 5 -15 6 0 11 5 11 11 0 5 6 7 13 3 10 -6 10 -4 0
7 -19 19 -17 24 25 51 60 40 120 109 154 176 31 62 47 78 44 45z m1751 1 c-3
-3 -12 -4 -19 -1 -8 3 -5 6 6 6 11 1 17 -2 13 -5z m104 -12 c-7 -2 -18 1 -23
6 -8 8 -4 9 13 5 13 -4 18 -8 10 -11z m-3248 -16 c-10 -13 -20 -22 -22 -20 -4
4 29 44 36 44 2 0 -4 -11 -14 -24z m3374 8 c-3 -3 -12 -4 -19 -1 -8 3 -5 6 6
6 11 1 17 -2 13 -5z m163 -13 c0 -4 -11 -6 -25 -3 -14 2 -25 6 -25 8 0 2 11 4
25 4 14 0 25 -4 25 -9z m53 -8 c-7 -2 -21 -2 -30 0 -10 3 -4 5 12 5 17 0 24
-2 18 -5z m311 -28 c-10 -8 -26 -15 -35 -15 -9 0 -59 -22 -112 -50 -54 -27
-97 -46 -97 -41 0 6 188 100 230 114 28 10 34 7 14 -8z m-3302 -1 c25 -5 35
-11 31 -20 -9 -24 -93 -13 -93 12 0 16 8 17 62 8z m3035 -15 c-10 -6 -43 -32
-75 -58 -61 -50 -82 -65 -82 -57 0 9 164 135 169 130 3 -3 -2 -10 -12 -15z
m-3222 -50 c-3 -5 0 -6 8 -3 30 11 24 -14 -19 -81 -46 -71 -50 -64 -17 29 7
21 13 47 13 58 0 10 5 16 10 13 6 -4 8 -11 5 -16z m7635 -55 c-46 -47 -202
-157 -239 -169 -12 -3 -19 -10 -16 -15 3 -4 -4 -6 -15 -3 -12 3 -20 1 -18 -4
5 -17 -25 -83 -39 -83 -7 0 -10 6 -7 14 3 8 -3 16 -15 19 -14 3 -21 0 -21 -9
0 -8 5 -14 10 -14 6 0 10 -5 10 -11 0 -8 -4 -8 -15 1 -18 15 -16 63 2 56 7 -3
13 -1 13 5 0 9 -102 4 -137 -6 -7 -2 -15 0 -18 5 -4 6 5 10 18 10 43 0 217 39
262 59 58 26 149 88 210 144 64 59 72 60 15 1z m-7574 -8 c-18 -24 -36 -55
-40 -69 -4 -19 -11 -24 -26 -20 -26 7 -26 12 13 77 26 46 37 56 59 56 l28 0
-34 -44z m76 -25 c-4 -10 -1 -12 9 -7 8 4 5 0 -6 -9 -14 -13 -16 -19 -7 -22
10 -4 10 -8 1 -19 -13 -16 -89 -19 -89 -4 0 16 48 88 62 92 17 6 37 -14 30
-31z m119 16 c-10 -9 -11 -8 -5 6 3 10 9 15 12 12 3 -3 0 -11 -7 -18z m2963 8
c-10 -8 -23 -14 -29 -14 -5 0 -1 6 9 14 11 8 24 15 30 15 5 0 1 -7 -10 -15z
m3371 5 c3 -5 15 -10 26 -10 10 0 19 -3 19 -7 0 -10 -124 -8 -167 2 -18 4 -33
10 -33 14 0 11 148 12 155 1z m1295 -7 c0 -5 3 -18 6 -30 6 -23 5 -23 -99 -23
l-105 0 28 -102 c15 -57 42 -148 59 -203 17 -54 31 -103 31 -107 0 -5 -10 -3
-22 3 -13 7 -25 12 -28 12 -19 -2 -30 12 -24 29 4 15 3 18 -6 13 -8 -5 -11 -4
-7 2 3 5 -1 29 -9 52 -8 24 -13 49 -11 55 2 6 8 -5 12 -24 4 -19 18 -52 32
-73 13 -21 21 -43 17 -50 -5 -9 -4 -9 6 0 10 9 6 32 -17 115 -17 57 -39 133
-49 171 -20 70 -34 87 -34 39 0 -16 -7 -37 -15 -48 -13 -16 -16 -17 -25 -4
-15 24 -23 96 -13 127 5 15 20 34 34 40 26 14 239 18 239 6z m-4910 -100 c-46
-49 -92 -97 -102 -108 -10 -11 -18 -17 -18 -14 0 11 188 209 199 209 2 0 -33
-39 -79 -87z m200 77 c0 -5 -4 -10 -9 -10 -5 0 -37 -18 -71 -41 -84 -55 -85
-45 -2 13 70 49 82 55 82 38z m-2937 -15 c-3 -9 -8 -14 -10 -11 -3 3 -2 9 2
15 9 16 15 13 8 -4z m-373 -60 c19 -21 26 -33 15 -25 -11 8 -26 22 -33 30 -14
17 -39 60 -26 45 5 -5 25 -28 44 -50z m5895 45 c3 -6 -1 -7 -9 -4 -18 7 -21
14 -7 14 6 0 13 -4 16 -10z m-5561 -50 c-10 -16 -20 -28 -22 -26 -4 5 28 56
35 56 2 0 -4 -13 -13 -30z m5921 -21 c140 -13 195 -27 93 -23 -35 1 -63 3 -63
5 0 3 -40 8 -107 13 -37 2 -76 7 -87 11 -11 3 -29 1 -41 -5 -12 -6 -20 -7 -20
-1 0 14 21 20 60 16 19 -2 94 -9 165 -16z m1852 -15 c28 -31 37 -64 29 -108
-6 -33 -33 -51 -59 -39 -18 8 -95 172 -83 177 26 10 92 -7 113 -30z m-3592 -6
c26 -20 27 -22 9 -35 -22 -16 -107 -17 -136 -2 -20 11 -20 12 8 35 37 29 83
30 119 2z m-1385 8 c0 -2 -8 -10 -17 -17 -16 -13 -17 -12 -4 4 13 16 21 21 21
13z m-3002 -53 c23 -12 42 -18 42 -14 0 5 13 8 30 7 16 -1 30 -5 30 -9 0 -5 5
-5 11 -2 5 4 18 -2 28 -14 12 -13 21 -17 28 -10 11 11 46 1 38 -11 -3 -5 -1
-11 5 -15 5 -3 10 2 11 12 0 11 3 13 6 5 2 -6 9 -10 14 -7 5 4 6 -2 2 -12 -6
-16 -5 -16 10 -4 9 7 14 17 11 22 -3 5 -1 9 5 9 5 0 13 -5 16 -10 4 -6 10 -8
14 -6 11 7 36 -12 27 -21 -5 -4 -11 -3 -13 3 -2 7 -12 10 -22 7 -17 -4 -16 -7
6 -29 13 -13 30 -21 36 -18 8 4 7 2 -1 -7 -16 -17 -115 -22 -105 -5 4 6 1 6
-8 -1 -9 -7 -26 -10 -40 -8 -13 3 -42 7 -64 10 -22 2 -54 8 -71 14 -17 5 -37
5 -45 1 -7 -5 -18 -6 -23 -2 -6 3 -19 7 -31 9 -26 3 -60 11 -60 13 0 1 -11 4
-25 6 -14 2 -34 6 -45 8 -11 2 -29 4 -39 5 -30 2 -4 23 34 27 17 2 36 6 41 9
5 4 6 -2 3 -12 -5 -17 -5 -17 9 0 9 11 21 15 33 11 11 -4 16 -4 12 1 -4 4 3
16 15 27 l22 20 -27 -16 c-30 -18 -38 -20 -38 -8 0 4 13 13 29 20 21 9 28 18
25 30 -5 15 -4 15 8 2 7 -8 32 -25 56 -37z m6322 43 c0 -2 -7 -6 -15 -10 -8
-3 -15 -1 -15 4 0 6 7 10 15 10 8 0 15 -2 15 -4z m51 -5 c-8 -5 -20 -7 -28 -4
-21 8 -15 13 15 13 20 0 23 -3 13 -9z m99 -9 c0 -4 -16 -6 -35 -4 -19 2 -35 6
-35 8 0 2 16 4 35 4 19 0 35 -4 35 -8z m110 -10 c0 -4 -9 -8 -20 -8 -11 0 -20
4 -20 8 0 4 9 8 20 8 11 0 20 -4 20 -8z m86 -11 c-5 -8 -56 -3 -56 5 0 2 14 4
31 4 16 0 28 -4 25 -9z m104 -8 c2 -2 -17 -3 -43 -1 -26 2 -47 6 -47 11 0 7
80 -2 90 -10z m-5800 2 c0 -2 -10 -10 -22 -16 -21 -11 -22 -11 -9 4 13 16 31
23 31 12z m5830 1 c0 -3 -4 -8 -10 -11 -5 -3 -10 -1 -10 4 0 6 5 11 10 11 6 0
10 -2 10 -4z m30 -6 c0 -5 -4 -10 -10 -10 -5 0 -10 5 -10 10 0 6 5 10 10 10 6
0 10 -4 10 -10z m-7136 -21 c-19 -22 -19 -22 8 -17 19 4 25 1 21 -9 -6 -15
-43 -18 -43 -2 0 5 -5 7 -12 3 -6 -4 -3 5 8 19 10 15 23 27 28 27 5 0 1 -10
-10 -21z m6171 -122 c75 -62 151 -132 161 -149 4 -7 -4 -3 -18 10 -19 17 -27
20 -31 10 -4 -9 -6 -7 -6 5 -1 19 -16 23 -27 5 -4 -7 -3 -8 4 -4 14 8 15 4 6
-18 -3 -9 -10 -16 -16 -16 -5 0 -6 4 -3 10 4 6 -1 7 -11 3 -14 -5 -16 -3 -11
12 7 16 5 16 -9 4 -10 -8 -12 -15 -5 -17 6 -2 11 -8 11 -14 0 -6 -7 -8 -15 -4
-8 3 -14 2 -14 -2 3 -19 -2 -26 -10 -13 -6 9 -11 10 -15 2 -4 -6 -3 -11 3 -11
6 0 8 -12 5 -29 -3 -16 0 -39 6 -52 13 -24 13 -24 -7 -4 -11 11 -18 26 -15 33
2 7 -1 18 -7 26 -6 7 -8 15 -5 18 2 3 -1 8 -8 11 -8 3 -14 -2 -14 -13 0 -10 4
-16 9 -13 5 3 6 -4 2 -17 -5 -16 0 -30 22 -53 l28 -30 -32 22 c-18 12 -35 26
-38 31 -3 5 -50 44 -103 87 -110 87 -142 116 -100 90 19 -12 29 -14 34 -5 4 6
3 8 -3 5 -6 -4 -16 0 -22 7 -8 10 -9 16 -1 21 5 3 10 1 10 -5 0 -6 5 -8 10 -5
6 4 7 11 4 17 -4 6 -3 9 2 6 5 -3 19 -2 32 3 26 10 30 47 5 56 -14 5 -13 8 6
15 14 5 20 13 15 20 -6 10 -4 11 7 1 15 -15 29 -17 29 -4 0 5 -9 13 -20 16
-11 4 -18 11 -15 16 4 5 13 2 21 -6 9 -8 20 -12 25 -9 6 3 -8 19 -30 36 -23
16 -41 32 -41 35 0 7 126 -83 195 -140z m1022 137 c-3 -3 -12 -4 -19 -1 -8 3
-5 6 6 6 11 1 17 -2 13 -5z m228 -4 c-3 -5 -15 -10 -26 -10 -11 0 -17 5 -14
10 3 6 15 10 26 10 11 0 17 -4 14 -10z m675 -14 c0 -13 3 -31 6 -40 4 -10 1
-16 -9 -16 -17 0 -27 21 -27 56 0 15 6 24 15 24 9 0 15 -9 15 -24z m-396 -15
c0 -11 5 -21 13 -21 13 0 17 -12 14 -38 -1 -8 2 -19 7 -25 8 -10 20 -63 22
-99 0 -4 7 -14 16 -22 8 -9 11 -16 5 -16 -6 0 -11 -7 -11 -15 0 -8 5 -15 10
-15 6 0 10 -9 10 -20 0 -11 -4 -20 -10 -20 -5 0 -10 5 -10 11 0 5 -4 7 -10 4
-5 -3 5 -19 23 -36 18 -16 28 -29 22 -28 -24 3 -27 -2 -10 -21 10 -12 20 -31
20 -43 2 -26 -14 -67 -27 -67 -5 0 -6 -5 -3 -11 4 -6 13 -8 21 -5 21 8 17 -2
-7 -14 -41 -22 -117 -38 -129 -26 -8 8 -13 7 -20 -4 -7 -11 -10 -11 -10 -2 0
7 -4 10 -10 7 -5 -3 -10 1 -10 11 0 13 3 14 15 4 12 -10 15 -7 21 17 4 15 11
33 16 40 11 14 -15 47 -27 35 -5 -4 -5 -1 -1 6 6 10 11 10 21 2 9 -8 15 -8 20
0 6 10 -11 14 -50 12 -12 0 -14 2 -6 5 11 5 11 7 0 15 -10 7 -8 8 8 3 16 -4
21 -2 19 11 -2 10 -9 20 -17 23 -21 9 -22 32 -1 24 13 -5 11 1 -8 23 -14 16
-18 23 -10 17 17 -15 34 -17 25 -3 -3 6 -3 10 2 10 4 0 9 15 10 33 0 17 -1 26
-4 20 -2 -7 -12 -13 -21 -14 -11 0 -12 -2 -4 -6 6 -2 12 -12 12 -21 -1 -15 -2
-15 -15 2 -7 10 -20 15 -27 12 -7 -4 -3 1 10 10 12 9 22 22 22 29 0 8 6 16 13
18 6 3 2 6 -10 6 -13 1 -23 6 -23 11 0 10 14 14 39 11 7 -2 10 2 6 8 -3 6 -17
11 -30 11 -13 0 -27 5 -31 11 -4 8 0 9 15 4 12 -4 21 -2 21 4 0 6 -7 11 -15
11 -8 0 -15 8 -14 18 0 10 3 12 6 5 6 -17 25 -17 21 0 -2 7 3 30 11 50 11 28
19 36 32 32 10 -3 21 0 25 6 5 9 2 10 -9 6 -17 -6 -23 4 -10 17 12 12 28 -1
27 -23z m-6484 15 c0 -3 -4 -8 -10 -11 -5 -3 -10 -1 -10 4 0 6 5 11 10 11 6 0
10 -2 10 -4z m1940 -26 c0 -5 -5 -10 -11 -10 -5 0 -7 5 -4 10 3 6 8 10 11 10
2 0 4 -4 4 -10z m1062 -33 c-12 -6 -22 -14 -22 -18 0 -9 20 -3 60 18 28 14 50
17 50 6 0 -10 -111 -43 -141 -43 -23 0 -23 0 -3 18 28 27 57 41 68 34 5 -3 0
-10 -12 -15z m208 9 c0 -7 -142 -48 -147 -42 -3 2 24 14 58 24 65 20 89 25 89
18z m136 -6 c26 -10 26 -11 9 -30 -21 -24 -66 -34 -111 -26 -39 8 -44 28 -11
44 50 24 74 27 113 12z m-536 -9 c0 -12 -21 -28 -53 -40 -17 -7 -27 -7 -27 -1
0 5 12 13 26 16 16 4 23 12 20 20 -3 9 2 14 14 14 11 0 20 -4 20 -9z m3590 5
c0 -10 -32 -36 -43 -36 -7 0 -1 9 13 20 26 21 30 23 30 16z m-3656 -16 c-12
-5 -25 -13 -29 -19 -7 -13 -25 -15 -25 -3 0 11 39 31 60 31 8 0 5 -4 -6 -9z
m166 6 c0 -2 -13 -6 -29 -8 -17 -2 -28 -1 -25 4 5 8 54 12 54 4z m596 -21 c19
-15 19 -15 0 -30 -25 -19 -106 -20 -131 -2 -17 13 -17 15 6 30 29 21 99 22
125 2z m-4021 -5 c-3 -5 -11 -10 -16 -10 -6 0 -7 5 -4 10 3 6 11 10 16 10 6 0
7 -4 4 -10z m4163 -23 c23 -6 42 -15 42 -19 0 -10 -51 1 -64 13 -6 5 -20 9
-33 9 -13 0 -23 5 -23 11 0 7 7 8 18 4 9 -3 36 -11 60 -18z m1122 -8 c0 -18
-2 -19 -15 -9 -12 10 -15 10 -15 0 0 -8 -3 -10 -7 -6 -5 4 1 14 11 22 25 18
26 18 26 -7z m1167 -1 c-39 -23 -77 -85 -77 -127 0 -12 -4 -20 -9 -17 -14 9 4
71 29 103 23 29 68 63 85 63 6 0 -7 -10 -28 -22z m-3240 6 c-3 -3 -12 -4 -19
-1 -8 3 -5 6 6 6 11 1 17 -2 13 -5z m4343 -4 c0 -12 -45 -24 -59 -15 -22 13
-10 25 24 25 19 0 35 -4 35 -10z m-4504 -12 c5 -7 3 -8 -5 -3 -8 4 -25 -1 -42
-14 -30 -23 -39 -26 -39 -13 0 9 51 41 67 42 6 0 15 -5 19 -12z m1074 2 c0 -5
-12 -10 -26 -10 -14 0 -23 -4 -19 -10 3 -5 17 -10 30 -10 13 0 27 -5 31 -11 8
-13 -29 -7 -78 13 -34 13 -36 25 -5 31 42 8 67 7 67 -3z m140 -53 c0 -5 -8 -6
-17 -2 -10 4 -26 10 -35 12 -10 3 -18 9 -18 13 0 5 16 3 35 -3 19 -6 35 -15
35 -20z m901 16 c13 -16 12 -17 -3 -4 -10 7 -18 15 -18 17 0 8 8 3 21 -13z
m-797 -25 c10 -10 28 -21 42 -24 46 -12 24 -24 -43 -24 -79 0 -108 12 -75 29
12 6 19 17 16 24 -7 20 39 15 60 -5z m731 -133 c33 -24 87 -72 120 -106 37
-39 47 -53 25 -36 -19 15 -89 68 -155 118 -66 49 -131 98 -145 109 -48 36 95
-42 155 -85z m-550 65 l50 -31 -72 7 c-40 4 -73 4 -73 0 0 -4 17 -14 38 -23
20 -9 32 -18 25 -20 -14 -5 -65 20 -82 40 -10 13 -8 16 8 22 11 3 37 3 58 0
l38 -6 -35 20 c-19 11 -28 20 -20 20 8 1 38 -13 65 -29z m2111 -78 c-25 -40
-83 -89 -93 -79 -2 3 9 13 25 21 20 10 40 35 59 73 17 35 29 51 31 41 2 -9 -8
-34 -22 -56z m-3646 38 c0 -5 -7 -10 -16 -10 -8 0 -12 5 -9 10 3 6 10 10 16
10 5 0 9 -4 9 -10z m80 6 c0 -2 -7 -6 -15 -10 -8 -3 -15 -1 -15 4 0 6 7 10 15
10 8 0 15 -2 15 -4z m2488 -16 c26 -25 27 -38 6 -68 -15 -22 -41 -32 -28 -11
4 7 -4 10 -22 8 -38 -4 -54 7 -54 36 0 52 58 72 98 35z m-2638 6 c0 -2 -9 -6
-20 -9 -11 -3 -18 -1 -14 4 5 9 34 13 34 5z m-80 -10 c0 -2 -7 -6 -15 -10 -8
-3 -15 -1 -15 4 0 6 7 10 15 10 8 0 15 -2 15 -4z m-3435 -16 c-3 -5 -11 -10
-16 -10 -6 0 -7 5 -4 10 3 6 11 10 16 10 6 0 7 -4 4 -10z m51 -10 c23 -8 312
-60 333 -60 3 0 0 -5 -7 -12 -8 -8 -15 -8 -27 2 -12 10 -18 10 -31 -1 -13 -11
-17 -10 -26 5 -8 13 -13 15 -24 5 -11 -9 -18 -9 -29 1 -12 10 -19 10 -27 2 -8
-8 -14 -7 -24 5 -10 15 -14 15 -28 4 -14 -11 -16 -11 -16 3 0 18 -15 22 -25 6
-10 -16 -28 -12 -21 5 7 18 -5 20 -22 3 -9 -9 -12 -8 -12 6 0 13 -5 16 -21 11
-16 -5 -19 -4 -14 6 6 9 3 11 -9 6 -10 -4 -15 -3 -11 3 8 12 6 12 41 0z m3841
-25 c-15 -14 -40 -25 -54 -25 l-26 0 23 25 c15 16 34 25 54 25 l31 -1 -28 -24z
m3108 -25 c10 -11 16 -20 13 -20 -3 0 -13 9 -23 20 -10 11 -16 20 -13 20 3 0
13 -9 23 -20z m-6580 -21 c11 -17 -1 -21 -15 -4 -8 9 -8 15 -2 15 6 0 14 -5
17 -11z m60 0 c11 -17 -1 -21 -15 -4 -8 9 -8 15 -2 15 6 0 14 -5 17 -11z m56
-6 c13 -16 12 -17 -3 -4 -10 7 -18 15 -18 17 0 8 8 3 21 -13z m39 3 c0 -3 -4
-8 -10 -11 -5 -3 -10 -1 -10 4 0 6 5 11 10 11 6 0 10 -2 10 -4z m55 -6 c-3 -5
-12 -10 -20 -10 -8 0 -17 5 -20 10 -4 6 5 10 20 10 15 0 24 -4 20 -10z m55 -6
c0 -2 -7 -4 -15 -4 -8 0 -15 4 -15 10 0 5 7 7 15 4 8 -4 15 -8 15 -10z m3006
-9 c-16 -14 -32 -22 -35 -19 -7 7 37 44 53 44 6 0 -2 -11 -18 -25z m74 5 c0
-5 -6 -10 -12 -10 -7 0 -24 -3 -38 -6 l-25 -6 25 15 c30 18 50 21 50 7z m82
-12 c-29 -5 -50 -14 -47 -19 8 -12 -6 -11 -24 0 -18 12 37 29 89 29 28 0 25
-2 -18 -10z m4269 -45 c-12 -20 -14 -14 -5 12 4 9 9 14 11 11 3 -2 0 -13 -6
-23z m-3992 11 c17 -4 31 -10 31 -15 0 -4 -14 -3 -31 3 -24 8 -33 8 -39 -2 -4
-7 -13 -9 -20 -5 -9 6 -9 9 1 16 17 11 19 11 58 3z m1096 -83 c157 -102 440
-350 421 -368 -3 -4 -41 27 -84 68 -111 108 -227 202 -387 313 -38 27 -74 53
-80 59 -18 17 58 -25 130 -72z m-1154 41 c-7 -2 -18 1 -23 6 -8 8 -4 9 13 5
13 -4 18 -8 10 -11z m57 6 c-2 -6 -10 -14 -16 -16 -7 -2 -10 2 -6 12 7 18 28
22 22 4z m152 -9 c20 -11 2 -11 -38 0 -30 9 -48 -2 -19 -12 6 -2 2 -2 -10 0
-24 4 -32 -12 -10 -20 6 -3 7 -6 1 -6 -5 -1 -19 6 -30 14 -16 12 -17 14 -3 15
9 0 20 7 23 16 5 12 14 14 38 9 18 -4 40 -11 48 -16z m3390 -24 c-7 -8 -17
-12 -24 -8 -6 4 -5 -1 3 -10 7 -9 18 -14 25 -10 6 3 4 -2 -5 -13 -16 -18 -22
-54 -10 -54 15 0 4 -87 -14 -115 -12 -16 -27 -43 -35 -58 -11 -22 -20 -27 -37
-24 -14 3 -23 -1 -23 -8 0 -8 8 -11 20 -8 11 3 20 0 20 -6 0 -6 -9 -11 -20
-11 -20 0 -23 -12 -21 -85 0 -19 -2 -25 -7 -15 -9 18 -42 23 -36 5 3 -7 1 -15
-3 -18 -5 -3 -9 6 -8 21 0 21 5 26 19 24 11 -2 15 1 11 7 -3 6 -1 11 6 11 8 0
9 3 0 13 -6 8 -8 16 -5 20 9 9 12 77 3 71 -5 -3 -9 -1 -9 4 0 16 13 22 27 11
9 -9 13 -8 13 0 0 6 -4 11 -9 11 -5 0 -16 14 -25 31 -14 28 -14 30 0 25 10 -4
18 1 21 14 5 19 6 19 25 -3 l19 -22 -17 28 c-12 19 -23 27 -36 24 -10 -3 -16
-2 -15 1 24 45 28 102 7 102 -22 1 61 39 85 40 11 0 27 5 35 10 23 15 34 12
20 -5z m-7765 -9 c16 -8 59 -20 97 -26 37 -7 68 -16 68 -21 0 -6 4 -7 10 -4
16 10 81 -6 73 -18 -3 -5 -1 -7 5 -3 16 10 62 -11 62 -29 0 -12 -7 -14 -32
-10 -18 4 -36 11 -40 18 -5 8 -8 9 -8 1 0 -8 -19 -8 -67 2 -115 24 -112 22
-106 44 4 16 2 19 -11 14 -9 -3 -23 -1 -31 6 -9 7 -18 10 -22 6 -3 -3 -1 -6 5
-6 7 0 12 -4 12 -10 0 -16 -21 -12 -37 8 -8 10 -11 11 -7 2 7 -13 5 -13 -9 -1
-22 17 -22 32 0 24 11 -4 14 -3 9 5 -9 16 -4 15 29 -2z m8259 -57 c-10 -11
-28 -25 -39 -30 -11 -6 -4 4 15 21 40 35 52 39 24 9z m-647 -4 c0 -8 -4 -15
-9 -15 -10 0 -11 14 -1 23 9 10 10 9 10 -8z m-2581 -21 c-4 -9 -9 -15 -11 -12
-3 3 -3 13 1 22 4 9 9 15 11 12 3 -3 3 -13 -1 -22z m-4650 -6 c28 2 80 -28 70
-39 -2 -2 -31 -2 -64 -1 -55 3 -60 6 -65 28 -4 20 -1 24 12 18 9 -4 30 -7 47
-6z m7633 -6 c-40 -31 -125 -86 -114 -74 16 17 119 90 129 91 5 1 -2 -7 -15
-17z m-3298 -18 c41 -21 35 -48 -12 -52 -26 -2 -40 3 -54 18 -19 22 -19 22 0
36 24 18 29 18 66 -2z m393 8 c9 -15 -10 -33 -28 -26 -13 5 -14 9 -5 20 13 16
25 18 33 6z m-4619 -22 c-3 -5 -11 -10 -16 -10 -6 0 -7 5 -4 10 3 6 11 10 16
10 6 0 7 -4 4 -10z m4854 -2 c-2 -2 -17 -14 -34 -28 l-30 -25 29 32 c16 18 32
31 34 28 3 -3 3 -6 1 -7z m-5354 -18 c3 -5 1 -10 -4 -10 -6 0 -11 5 -11 10 0
6 2 10 4 10 3 0 8 -4 11 -10z m5185 -30 c-11 -21 -13 -21 -28 -6 -15 14 -14
17 3 30 26 19 40 4 25 -24z m-350 5 c17 -9 30 -20 30 -25 0 -6 -11 -3 -25 6
-13 9 -30 14 -37 11 -8 -3 -2 -10 15 -17 31 -15 34 -25 11 -34 -16 -6 -68 16
-79 34 -9 15 7 12 29 -5 11 -8 24 -15 30 -15 6 0 0 7 -12 16 -25 17 -29 44 -7
44 9 0 29 -7 45 -15z m574 -23 c-17 -15 -41 -36 -55 -48 -13 -12 -29 -30 -36
-40 -10 -16 -13 -17 -22 -4 -15 22 -14 28 11 36 12 3 33 17 47 30 14 13 30 24
36 24 6 0 17 9 25 20 8 11 16 17 19 14 4 -3 -8 -18 -25 -32z m-5184 12 c0 -2
-7 -4 -15 -4 -8 0 -15 4 -15 10 0 5 7 7 15 4 8 -4 15 -8 15 -10z m-90 -4 c0
-5 -2 -10 -4 -10 -3 0 -8 5 -11 10 -3 6 -1 10 4 10 6 0 11 -4 11 -10z m7745
-6 c-26 -20 -55 -36 -55 -30 0 5 63 46 70 46 3 -1 -4 -8 -15 -16z m-2615 -10
c0 -3 -5 -14 -11 -25 -8 -16 -13 -18 -25 -8 -11 9 -12 15 -3 25 11 14 39 19
39 8z m242 -21 c-7 -3 -22 -14 -33 -26 -10 -11 -19 -16 -19 -10 0 14 53 54 60
46 3 -3 -1 -8 -8 -10z m-5387 -11 c-3 -3 -11 0 -18 7 -9 10 -8 11 6 5 10 -3
15 -9 12 -12z m-40 -2 c3 -5 2 -10 -4 -10 -5 0 -13 5 -16 10 -3 6 -2 10 4 10
5 0 13 -4 16 -10z m295 -32 c0 -5 -10 -2 -23 7 -13 8 -27 12 -32 8 -4 -5 -5
-3 -1 4 5 9 13 10 31 1 14 -6 25 -15 25 -20z m-130 2 c0 -5 -5 -10 -11 -10 -5
0 -7 5 -4 10 3 6 8 10 11 10 2 0 4 -4 4 -10z m5169 -37 c-32 -38 -69 -52 -69
-28 0 13 28 30 43 26 5 -1 18 10 29 24 11 14 23 24 25 21 3 -3 -9 -22 -28 -43z
m2221 7 c0 -5 -2 -10 -4 -10 -3 0 -8 5 -11 10 -3 6 -1 10 4 10 6 0 11 -4 11
-10z m-3056 -39 c3 -5 -2 -15 -12 -22 -15 -12 -16 -12 -5 2 7 9 10 19 6 22 -3
4 -4 7 0 7 3 0 8 -4 11 -9z m-33 -14 c-6 -8 -9 -16 -6 -19 3 -3 -2 -11 -12
-19 -11 -9 -14 -10 -9 -1 4 6 3 12 -3 12 -10 0 -26 -19 -26 -32 0 -3 -3 -9 -7
-13 -3 -4 -5 1 -4 10 1 10 18 30 37 46 37 31 48 36 30 16z m915 -18 c3 -6 -1
-18 -9 -27 -13 -13 -19 -13 -32 -2 -14 11 -13 14 2 26 22 16 30 17 39 3z
m-754 -37 c-15 -7 -36 -22 -47 -32 -24 -21 -305 -240 -309 -240 -1 0 -3 7 -3
15 0 8 43 47 95 87 52 40 110 85 127 101 37 31 54 36 34 10 -13 -16 -12 -17 3
-4 10 7 16 17 13 21 -7 11 48 50 69 50 9 0 19 7 23 16 4 12 8 13 14 3 5 -8 -2
-17 -19 -27z m1073 8 c3 -6 -1 -7 -9 -4 -18 7 -21 14 -7 14 6 0 13 -4 16 -10z
m-1318 -25 c0 -8 -10 -23 -21 -32 -20 -17 -20 -17 -7 0 7 9 10 17 6 17 -4 0
-2 7 5 15 15 19 17 19 17 0z m751 -15 c29 -27 29 -58 0 -64 -27 -5 -69 -3 -63
2 2 3 -2 14 -10 25 -32 46 29 77 73 37z m302 -15 c-10 -12 -16 -13 -27 -3 -13
10 -12 14 3 25 24 17 42 0 24 -22z m-1099 2 c-6 -8 -9 -16 -6 -19 3 -3 -1 -11
-9 -17 -11 -10 -14 -9 -12 2 2 16 25 47 33 47 3 0 0 -6 -6 -13z m3239 -7 c0
-21 -24 -28 -35 -10 -4 6 -1 9 7 8 7 -2 12 3 11 10 -2 6 2 12 7 12 6 0 10 -9
10 -20z m-2820 -11 c0 -6 -4 -7 -10 -4 -5 3 -10 11 -10 16 0 6 5 7 10 4 6 -3
10 -11 10 -16z m-41 -14 c-3 -10 -104 -95 -112 -95 -9 0 -1 28 13 44 7 10 19
15 27 12 8 -3 12 -2 8 3 -3 5 7 18 22 30 28 21 47 23 42 6z m-423 -10 c-1 -8
-7 -20 -13 -26 -13 -13 -13 7 0 29 11 16 16 15 13 -3z m1214 -3 c0 -4 -4 -13
-9 -21 -8 -12 -12 -12 -25 2 -15 15 -15 17 1 26 17 9 33 6 33 -7z m2068 -20
c3 -19 0 -21 -19 -13 -13 4 -25 14 -27 22 -3 11 -1 11 7 -1 9 -13 11 -12 11 3
0 25 24 16 28 -11z m-3327 -5 c-6 -8 -9 -16 -6 -19 3 -3 -1 -11 -9 -17 -11
-10 -14 -9 -12 2 2 16 25 47 33 47 3 0 0 -6 -6 -13z m613 -28 c-6 -11 -24 -2
-24 11 0 5 7 7 15 4 8 -4 12 -10 9 -15z m381 11 c4 -6 -11 -10 -37 -10 l-43 0
29 -25 c16 -14 27 -27 25 -30 -6 -5 -79 59 -79 68 0 11 98 8 105 -3z m2335
-50 c0 -19 -6 -29 -20 -33 -22 -6 -23 12 -1 29 18 14 5 35 -16 27 -15 -6 -16
-5 -3 9 20 21 40 5 40 -32z m-3379 27 c-6 -8 -7 -18 -3 -22 4 -5 1 -5 -6 -1
-10 6 -10 11 -1 22 6 8 14 14 16 14 3 0 0 -6 -6 -13z m622 6 c8 -7 -11 -33
-23 -33 -7 0 -7 18 -1 38 2 5 18 2 24 -5z m740 0 c3 -5 -6 -9 -20 -10 -19 -1
-22 1 -12 8 17 11 26 11 32 2z m-967 -18 c-3 -22 -22 -38 -36 -30 -8 5 -6 12
6 26 21 23 33 24 30 4z m365 -2 c13 -16 12 -17 -3 -4 -10 7 -18 15 -18 17 0 8
8 3 21 -13z m-175 -8 c-2 -16 -64 -74 -80 -75 -5 0 -2 8 5 18 13 15 12 16 -3
3 -10 -7 -16 -17 -13 -21 4 -6 -67 -70 -79 -70 -2 0 -3 7 -2 15 1 9 30 38 64
65 63 52 85 63 61 33 -13 -16 -12 -17 4 -4 9 8 15 16 12 19 -6 6 14 32 25 32
5 0 7 -7 6 -15z m-623 -7 c-4 -7 -8 -17 -8 -23 0 -5 -9 -10 -20 -10 -11 0 -19
-5 -18 -12 1 -6 -5 -17 -14 -25 -12 -9 -15 -9 -9 0 4 6 3 12 -3 12 -10 0 -26
-19 -26 -32 0 -13 -13 -19 -19 -9 -4 5 22 33 56 60 68 54 73 58 61 39z m390
-15 c8 -7 -21 -43 -36 -43 -5 0 -3 8 4 18 13 15 12 16 -3 3 -10 -7 -16 -17
-13 -21 8 -13 -65 -64 -76 -53 -6 6 12 27 48 56 61 49 66 51 76 40z m400 -13
c3 -11 1 -18 -4 -14 -5 3 -9 12 -9 20 0 20 7 17 13 -6z m-30 -17 c8 -7 -21
-43 -36 -43 -5 0 -3 8 4 18 13 15 12 16 -3 3 -10 -7 -16 -17 -13 -21 2 -4 -47
-48 -110 -98 -110 -88 -142 -110 -115 -77 7 8 9 15 5 15 -5 0 0 9 10 20 25 28
43 25 19 -2 l-19 -23 22 19 c13 10 21 22 18 26 -4 7 118 110 130 110 4 0 3 -6
-1 -12 -4 -8 -3 -10 2 -5 5 5 9 13 9 18 0 9 55 58 66 59 3 0 9 -3 12 -7z
m2657 -34 c0 -18 -5 -29 -11 -27 -6 2 -10 7 -10 11 1 4 1 19 1 33 0 14 4 23
10 19 6 -3 10 -20 10 -36z m-3314 -4 c-1 -7 -36 -40 -77 -73 -197 -155 -261
-203 -254 -192 5 8 3 11 -6 8 -8 -3 -13 -10 -12 -15 1 -6 -17 -25 -40 -44 -23
-18 -36 -26 -28 -16 7 9 9 17 3 17 -12 0 -34 -25 -27 -32 3 -2 -2 -5 -10 -5
-23 0 -9 13 145 132 78 61 176 138 218 172 82 66 91 71 88 48z m789 -44 c-6
-5 -25 10 -25 20 0 5 6 4 14 -3 8 -7 12 -15 11 -17z m2522 -136 c2 -109 -1
-145 -10 -145 -8 0 -9 -3 -1 -8 8 -6 15 -172 7 -172 -1 0 -16 9 -34 19 -19 12
-26 21 -19 26 6 4 17 1 25 -5 8 -7 15 -9 15 -5 0 4 -8 14 -17 21 -17 13 -17
15 0 28 19 15 22 32 7 41 -6 4 -10 3 -9 -2 3 -19 -2 -36 -8 -29 -4 4 -8 29 -9
55 -1 37 3 48 14 47 8 0 16 7 18 18 4 28 -14 68 -27 60 -7 -4 -10 -1 -7 7 3 8
12 13 19 12 9 -2 15 5 15 17 0 14 -5 18 -17 15 -10 -3 -20 -1 -24 4 -3 7 0 8
9 5 10 -4 16 -1 16 9 0 9 3 22 6 30 3 10 -2 17 -13 20 -16 4 -16 5 2 6 16 1
20 8 20 33 0 19 -6 33 -15 35 -13 4 -13 3 0 -6 8 -6 10 -11 4 -11 -16 0 -23
10 -17 25 3 10 10 11 26 4 21 -9 22 -17 24 -154z m-3152 146 c3 -6 -11 -22
-31 -38 -20 -15 -51 -40 -69 -55 -36 -31 -55 -37 -34 -11 8 9 13 18 11 20 -3
4 64 63 72 63 4 0 4 -6 0 -12 -4 -8 -3 -10 2 -5 5 5 9 12 9 15 1 25 29 40 40
23z m-425 -4 c0 -2 -10 -12 -22 -23 l-23 -19 19 23 c18 21 26 27 26 19z m606
-11 c-2 -17 -25 -46 -36 -46 -12 0 -6 25 9 44 17 20 30 21 27 2z m408 -5 c3
-5 -55 -58 -130 -118 -74 -59 -184 -147 -244 -195 -107 -86 -136 -105 -109
-70 13 15 12 16 -3 3 -10 -7 -16 -17 -13 -21 3 -5 -171 -149 -280 -231 -6 -4
-16 -5 -22 -1 -7 5 12 27 52 60 62 51 83 63 69 40 -4 -7 -3 -8 5 -4 6 4 9 11
6 16 -3 4 15 24 39 44 48 39 67 47 45 19 -13 -16 -12 -17 3 -4 10 7 16 17 13
21 -4 7 118 110 131 110 3 0 0 -8 -7 -17 -13 -16 -12 -17 3 -4 10 7 16 17 13
21 -3 4 15 24 39 44 48 39 67 47 45 19 -13 -16 -12 -17 3 -5 10 8 16 18 15 23
-2 8 301 257 315 258 4 1 9 -3 12 -8z m-1064 -25 c0 -2 -8 -10 -17 -17 -16
-13 -17 -12 -4 4 13 16 21 21 21 13z m606 -11 c-1 -8 -21 -31 -43 -50 -42 -36
-65 -47 -43 -20 7 8 9 15 4 15 -10 1 67 70 78 70 3 0 5 -7 4 -15z m-646 -19
c0 -2 -8 -10 -17 -17 -16 -13 -17 -12 -4 4 13 16 21 21 21 13z m1224 -12 c3
-8 2 -12 -4 -9 -6 3 -10 10 -10 16 0 14 7 11 14 -7z m2391 -12 c-3 -3 -11 0
-18 7 -9 10 -8 11 6 5 10 -3 15 -9 12 -12z m-3244 -5 c-6 -8 -9 -16 -6 -19 9
-9 -24 -30 -35 -23 -8 5 -4 15 11 31 23 25 50 34 30 11z m808 -14 c-12 -15
-12 -16 4 -10 25 9 21 4 -15 -23 -31 -22 -32 -22 -14 -2 11 12 15 22 9 22 -13
0 -45 -35 -38 -42 5 -4 -61 -60 -260 -218 -27 -22 -102 -81 -165 -132 -63 -51
-131 -105 -150 -120 -19 -15 -62 -48 -95 -74 -33 -26 -51 -38 -41 -26 20 23
10 30 -14 10 -12 -10 -11 -9 0 4 8 9 89 75 180 147 154 122 280 223 509 406
95 76 114 89 90 58z m-626 -5 c-4 -7 -8 -16 -8 -19 0 -7 -71 -69 -79 -69 -4 0
-4 5 0 12 4 7 3 8 -5 4 -6 -4 -9 -11 -6 -15 4 -7 -67 -71 -79 -71 -8 0 0 28
13 44 18 22 37 20 20 -1 -11 -16 -11 -16 1 -5 8 7 15 18 15 23 0 6 27 33 60
59 60 48 83 61 68 38z m180 -20 c-4 -7 -8 -16 -8 -20 0 -9 -81 -78 -91 -78 -4
0 1 10 12 23 l19 22 -22 -19 c-12 -10 -21 -21 -20 -25 2 -8 -67 -71 -77 -71
-4 0 -4 6 1 13 4 6 8 15 8 19 0 9 166 146 178 147 5 1 5 -5 0 -11z m-409 -7
c5 -7 -205 -181 -219 -181 -2 0 -2 7 -1 16 2 14 191 172 208 174 4 0 9 -4 12
-9z m-4069 -41 c-3 -5 -11 -10 -16 -10 -6 0 -7 5 -4 10 3 6 11 10 16 10 6 0 7
-4 4 -10z m-215 -30 c0 -5 -7 -7 -15 -4 -8 4 -15 8 -15 10 0 2 7 4 15 4 8 0
15 -4 15 -10z m110 0 c0 -5 -4 -10 -10 -10 -5 0 -10 5 -10 10 0 6 5 10 10 10
6 0 10 -4 10 -10z m7479 -34 c10 -12 8 -13 -8 -9 -12 3 -21 9 -21 14 0 14 16
11 29 -5z m-7482 -18 c-3 -8 -6 -5 -6 6 -1 11 2 17 5 13 3 -3 4 -12 1 -19z
m5093 18 c0 -2 -8 -10 -17 -17 -16 -13 -17 -12 -4 4 13 16 21 21 21 13z m466
-21 c9 -13 14 -30 11 -37 -4 -9 -6 -8 -6 3 -1 21 -41 58 -41 38 0 -8 7 -25 16
-38 14 -19 14 -25 3 -32 -20 -13 -22 -12 -47 26 -12 19 -18 35 -14 35 5 0 15
-11 22 -25 7 -14 17 -25 22 -25 12 0 9 12 -7 34 -8 11 -15 26 -15 33 0 22 39
14 56 -12z m-1340 3 c-2 -19 -16 -38 -26 -38 -4 0 -7 6 -6 13 2 18 16 37 26
37 4 0 7 -6 6 -12z m-4145 -25 c13 -16 12 -17 -3 -4 -17 13 -22 21 -14 21 2 0
10 -8 17 -17z m2069 8 c0 -16 -20 -23 -46 -17 -36 9 -29 26 11 26 19 0 35 -4
35 -9z m2250 -6 c-7 -8 -9 -15 -5 -15 4 0 2 -7 -5 -15 -16 -19 -29 -19 -26 -1
3 18 26 46 38 46 6 0 5 -7 -2 -15z m-214 -9 c-2 -17 -25 -46 -36 -46 -12 0 -6
25 9 44 17 20 30 21 27 2z m864 10 c0 -2 -8 -10 -17 -17 -16 -13 -17 -12 -4 4
13 16 21 21 21 13z m-2895 -31 c44 -7 60 -12 35 -10 -25 3 -142 8 -260 11
-171 5 -243 3 -350 -10 -501 -63 -928 -278 -1266 -639 -43 -45 -63 -64 -46
-41 46 60 227 231 314 297 285 214 631 355 973 396 50 6 104 13 120 15 61 9
403 -5 480 -19z m1801 0 c-3 -18 -65 -74 -83 -75 -6 0 -15 5 -19 12 -5 8 -2 9
9 5 9 -3 16 -2 14 3 -2 9 62 69 75 70 3 0 5 -7 4 -15z m1034 12 c0 -2 -10 -12
-22 -23 l-23 -19 19 23 c18 21 26 27 26 19z m-634 -21 c-2 -18 -26 -46 -38
-46 -5 0 -6 6 -2 13 4 6 4 9 0 5 -4 -3 -6 -8 -4 -11 4 -6 -33 -47 -43 -47 -19
0 1 37 37 67 43 36 53 40 50 19z m-4321 -6 c3 -5 -1 -10 -9 -10 -9 0 -16 5
-16 10 0 6 4 10 9 10 6 0 13 -4 16 -10z m4101 -4 c-3 -24 -29 -47 -45 -41 -8
3 -12 3 -8 -1 4 -4 0 -16 -10 -26 -18 -20 -38 -25 -27 -6 4 7 3 8 -5 4 -6 -4
-9 -11 -6 -16 7 -11 -22 -33 -34 -26 -5 4 -13 1 -17 -5 -5 -8 -3 -9 7 -4 12 8
12 6 0 -9 -10 -12 -17 -14 -25 -6 -13 14 30 54 47 43 5 -3 7 -2 4 4 -9 14 70
76 86 67 6 -4 9 -4 5 1 -8 9 9 35 22 35 5 0 7 -6 6 -14z m864 10 c0 -2 -8 -10
-17 -17 -16 -13 -17 -12 -4 4 13 16 21 21 21 13z m-5042 -45 c-7 -9 -13 -17
-14 -19 -1 -2 -1 8 -1 22 0 17 4 23 14 19 11 -4 11 -8 1 -22z m96 15 c-5 -14
-44 -30 -44 -17 0 3 10 11 23 17 12 7 23 12 24 13 1 0 0 -5 -3 -13z m4886 11
c0 -2 -10 -12 -22 -23 l-23 -19 19 23 c18 21 26 27 26 19z m684 -19 c21 -30
21 -74 0 -82 -17 -7 -54 19 -54 37 0 6 6 2 14 -8 16 -22 46 -14 46 13 0 11 -7
26 -16 33 -14 11 -18 10 -30 -6 -18 -24 -29 -13 -14 14 14 27 35 27 54 -1z
m-664 9 c0 -2 -15 -16 -32 -33 l-33 -29 29 33 c28 30 36 37 36 29z m-5058 -29
c-7 -7 -12 -8 -12 -2 0 14 12 26 19 19 2 -3 -1 -11 -7 -17z m4354 -20 c-3 -25
-18 -39 -34 -33 -9 3 -13 3 -9 -1 4 -4 -3 -18 -15 -31 -23 -25 -48 -32 -28 -8
7 8 9 15 4 15 -10 1 67 70 78 70 3 0 5 -6 4 -12z m2711 -10 c-3 -8 -6 -5 -6 6
-1 11 2 17 5 13 3 -3 4 -12 1 -19z m-5288 8 c-2 -2 -38 -6 -79 -9 -46 -3 -62
-2 -40 3 36 8 126 13 119 6z m-1498 -33 c13 -16 12 -17 -3 -4 -10 7 -18 15
-18 17 0 8 8 3 21 -13z m1332 10 c-7 -2 -19 -2 -25 0 -7 3 -2 5 12 5 14 0 19
-2 13 -5z m587 -12 c31 -6 16 -7 -50 -3 -149 11 -396 7 -504 -7 -277 -36 -612
-157 -829 -299 -49 -33 -40 -41 10 -9 66 42 234 123 311 151 250 89 459 121
757 112 116 -3 228 -10 250 -15 38 -10 38 -10 -15 -6 -364 32 -653 3 -946 -93
-123 -41 -301 -124 -399 -187 -55 -35 -88 -48 -51 -20 11 8 15 15 9 15 -13 0
-35 -25 -28 -32 6 -6 -44 -41 -62 -44 -24 -4 -165 -139 -255 -246 -50 -59 -93
-108 -96 -108 -2 0 18 28 45 63 72 95 322 340 339 333 8 -3 13 -2 10 3 -6 10
64 65 169 132 112 72 145 91 145 83 0 -4 8 0 18 8 25 23 182 89 193 82 5 -3
15 1 23 9 16 16 213 76 272 82 27 3 21 0 -21 -11 -95 -24 -227 -65 -223 -69 2
-2 31 4 64 15 80 24 241 58 334 70 86 10 463 4 530 -9z m2760 6 c0 -2 -12 -14
-27 -28 l-28 -24 24 28 c23 25 31 32 31 24z m-4850 -42 c8 -10 8 -15 -1 -21
-8 -4 -9 -3 -5 4 4 8 -3 16 -18 22 -14 5 -26 11 -26 14 0 8 40 -7 50 -19z
m150 15 c-20 -13 -33 -13 -25 0 3 6 14 10 23 10 15 0 15 -2 2 -10z m2023 3
c-7 -2 -19 -2 -25 0 -7 3 -2 5 12 5 14 0 19 -2 13 -5z m4647 3 c0 -2 -8 -10
-17 -17 -16 -13 -17 -12 -4 4 13 16 21 21 21 13z m-2670 -21 c-7 -8 -9 -15 -5
-15 4 0 2 -7 -5 -15 -15 -18 -35 -20 -24 -3 4 7 3 8 -5 4 -6 -4 -9 -11 -6 -15
7 -12 -32 -44 -44 -36 -14 8 -14 25 0 25 5 0 7 -6 3 -12 -4 -8 -3 -10 2 -5 5
5 9 13 9 19 0 11 65 67 79 68 5 0 3 -7 -4 -15z m-4255 -24 c-9 -16 -25 -3 -18
15 4 10 9 12 15 6 6 -6 7 -15 3 -21z m5785 21 c0 -5 -9 -17 -20 -27 -16 -15
-18 -21 -8 -34 8 -10 4 -9 -10 3 l-22 19 22 24 c22 23 38 30 38 15z m525 -248
c44 -171 64 -311 69 -480 l5 -139 -9 120 c-20 273 -69 525 -136 698 -7 20 -14
43 -13 50 1 27 53 -126 84 -249z m552 234 c-3 -8 -6 -5 -6 6 -1 11 2 17 5 13
3 -3 4 -12 1 -19z m-6785 -12 c10 6 10 4 -1 -9 -19 -23 -26 -21 -40 10 -13 27
-12 27 8 9 12 -11 25 -15 33 -10z m103 17 c15 -5 15 -8 -6 -24 -13 -10 -18
-19 -11 -19 7 0 10 -4 7 -10 -10 -17 -25 -11 -25 9 0 11 6 22 13 24 9 4 8 8
-3 16 -17 12 -1 15 25 4z m4715 4 c0 -2 -10 -12 -22 -23 l-23 -19 19 23 c18
21 26 27 26 19z m-50 -41 c0 -2 -21 -20 -47 -41 l-48 -37 45 41 c45 41 50 45
50 37z m2606 -17 c19 -22 19 -22 -3 -8 -13 8 -23 17 -23 21 0 12 6 9 26 -13z
m-3340 -10 c19 -22 19 -22 -3 -8 -13 8 -23 17 -23 21 0 12 6 9 26 -13z m674 8
c0 -2 -10 -12 -22 -23 l-23 -19 19 23 c18 21 26 27 26 19z m-4685 -17 c3 -5 1
-10 -4 -10 -6 0 -11 5 -11 10 0 6 2 10 4 10 3 0 8 -4 11 -10z m3689 -6 c3 -8
2 -12 -4 -9 -6 3 -10 10 -10 16 0 14 7 11 14 -7z m-3811 -14 c4 0 5 5 1 12 -4
7 -3 8 5 4 6 -4 9 -11 6 -16 -3 -4 1 -10 7 -13 7 -2 10 -7 6 -11 -9 -11 -44
10 -52 31 -6 14 -5 16 5 6 7 -7 17 -13 22 -13z m1700 13 c-13 -2 -33 -2 -45 0
-13 2 -3 4 22 4 25 0 35 -2 23 -4z m-85 -10 c-10 -2 -26 -2 -35 0 -10 3 -2 5
17 5 19 0 27 -2 18 -5z m-1313 -13 c-3 -5 -11 -10 -16 -10 -6 0 -7 5 -4 10 3
6 11 10 16 10 6 0 7 -4 4 -10z m1175 -11 c-95 -20 -106 -22 -97 -13 9 10 117
32 152 32 17 0 -8 -8 -55 -19z m1669 -5 c14 -12 -19 -1 -35 12 -18 14 -18 14
6 3 14 -6 27 -13 29 -15z m-3019 -4 c0 -16 -15 -18 -33 -5 -13 10 -15 14 -5
18 16 5 38 -2 38 -13z m1918 9 c53 -6 113 -15 132 -20 32 -8 31 -8 -10 -3
-202 25 -531 20 -699 -11 -211 -39 -446 -124 -608 -219 -70 -41 -70 -41 -70
-21 0 15 95 81 104 72 2 -3 -17 -17 -42 -31 -82 -48 -47 -35 88 34 227 117
406 169 692 203 70 9 323 6 413 -4z m2702 7 c0 -2 -8 -10 -17 -17 -16 -13 -17
-12 -4 4 13 16 21 21 21 13z m-725 -16 c3 -5 1 -10 -4 -10 -6 0 -11 5 -11 10
0 6 2 10 4 10 3 0 8 -4 11 -10z m745 6 c0 -2 -8 -10 -17 -17 -16 -13 -17 -12
-4 4 13 16 21 21 21 13z m-4711 -20 c9 -10 8 -15 -2 -19 -8 -3 -13 3 -13 14 0
23 0 23 15 5z m121 4 c0 -5 -2 -10 -4 -10 -3 0 -8 5 -11 10 -3 6 -1 10 4 10 6
0 11 -4 11 -10z m1187 4 c-4 -4 -66 -27 -138 -51 -72 -24 -171 -64 -221 -89
-50 -24 -93 -42 -96 -39 -9 9 203 104 324 144 120 40 143 46 131 35z m1998
-117 c50 -33 119 -83 155 -110 36 -28 59 -43 52 -34 -8 9 -36 33 -63 54 -49
37 -69 82 -31 69 10 -4 6 4 -11 19 -15 14 -25 25 -21 25 10 0 145 -102 239
-181 92 -77 236 -223 188 -190 -31 21 -52 24 -64 8 -3 -4 -21 7 -40 24 -104
96 -102 91 7 -21 66 -69 140 -150 164 -180 24 -30 -10 1 -76 69 -206 215 -384
363 -589 491 -55 34 -104 67 -110 73 -18 18 109 -55 200 -116z m4049 115 c3
-5 -13 -26 -34 -47 -46 -45 -57 -26 -14 24 26 32 39 37 48 23z m-7134 -17 c-7
-9 -15 -13 -19 -10 -3 3 1 10 9 15 21 14 24 12 10 -5z m3800 -6 c0 -6 -4 -7
-10 -4 -5 3 -10 11 -10 16 0 6 5 7 10 4 6 -3 10 -11 10 -16z m630 17 c0 -2 -8
-10 -17 -17 -16 -13 -17 -12 -4 4 13 16 21 21 21 13z m-4563 -36 c-14 -11 -31
-20 -37 -20 -17 0 32 39 49 40 8 0 2 -9 -12 -20z m4573 16 c0 -2 -8 -10 -17
-17 -16 -13 -17 -12 -4 4 13 16 21 21 21 13z m-4510 -25 c0 -12 -39 -21 -45
-11 -3 5 3 11 12 13 29 8 33 7 33 -2z m3757 -28 c-8 -7 -35 9 -41 23 -4 11 0
11 20 -2 13 -9 23 -18 21 -21z m-3897 23 c0 -11 -19 -15 -25 -6 -3 5 1 10 9
10 9 0 16 -2 16 -4z m4580 0 c0 -2 -8 -10 -17 -17 -16 -13 -17 -12 -4 4 13 16
21 21 21 13z m-4620 -16 c0 -5 -2 -10 -4 -10 -3 0 -8 5 -11 10 -3 6 -1 10 4
10 6 0 11 -4 11 -10z m4640 6 c0 -2 -19 -19 -42 -36 l-43 -32 40 36 c40 36 45
39 45 32z m-4526 -21 c-7 -18 -14 -18 -34 -4 -13 9 -12 10 2 5 10 -3 20 -1 23
4 9 15 15 12 9 -5z m5782 -27 c8 -16 13 -32 10 -35 -3 -3 -10 6 -15 21 -13 32
-35 36 -25 4 4 -13 7 -29 8 -37 1 -19 -20 -25 -27 -7 -4 10 -1 13 8 10 11 -5
12 0 3 24 -12 31 -5 67 12 57 6 -3 17 -20 26 -37z m-5878 2 c5 -13 3 -13 -13
0 -17 14 -18 13 -12 -4 6 -16 5 -17 -8 -6 -8 7 -12 17 -9 22 8 13 36 6 42 -12z
m135 -5 c-10 -8 -20 -11 -23 -8 -3 3 1 8 8 10 6 3 10 9 7 14 -4 5 1 6 10 3 14
-6 14 -8 -2 -19z m2925 -2 c245 -140 524 -367 684 -557 29 -34 -5 -3 -75 67
-80 82 -130 126 -138 121 -7 -4 -9 -3 -6 3 14 23 -209 195 -418 325 -108 67
-138 94 -47 41z m4271 -77 c1 -80 -5 -68 -12 24 -3 44 -2 67 3 55 5 -11 9 -47
9 -79z m-7281 59 c-3 -3 -9 2 -12 12 -6 14 -5 15 5 6 7 -7 10 -15 7 -18z m227
7 c-3 -3 -11 0 -18 7 -9 10 -8 11 6 5 10 -3 15 -9 12 -12z m5545 3 c0 -8 -2
-15 -4 -15 -2 0 -6 7 -10 15 -3 8 -1 15 4 15 6 0 10 -7 10 -15z m-5656 -20
c-9 -14 -19 -23 -22 -20 -5 4 26 45 35 45 2 0 -4 -11 -13 -25z m51 5 c-3 -5
-13 -10 -21 -10 -8 0 -12 5 -9 10 3 6 13 10 21 10 8 0 12 -4 9 -10z m1643
-110 c-3 -22 -7 -19 -42 33 -21 31 -41 56 -43 54 -1 -2 1 -26 6 -53 9 -45 7
-64 -3 -53 -2 2 -7 30 -11 62 -9 68 2 73 41 20 16 -21 31 -42 36 -47 4 -5 5
15 3 45 l-4 54 9 -45 c6 -25 9 -56 8 -70z m50 20 l0 -45 -9 40 c-4 22 -8 54
-7 70 0 29 0 29 8 5 4 -14 8 -45 8 -70z m51 40 c4 0 16 9 26 20 10 11 23 20
28 20 6 0 0 -11 -13 -25 l-24 -25 34 -35 c42 -44 28 -46 -17 -3 l-33 32 -1
-35 -1 -34 -8 30 c-4 17 -7 48 -7 70 0 28 1 31 4 13 2 -16 8 -28 12 -28z
m-2044 30 c3 -5 1 -10 -4 -10 -6 0 -11 5 -11 10 0 6 2 10 4 10 3 0 8 -4 11
-10z m2164 -40 c4 0 16 9 26 20 10 11 23 20 28 20 6 0 1 -10 -11 -23 -28 -30
-28 -35 5 -69 15 -15 22 -28 15 -28 -6 0 -21 14 -34 30 -27 37 -36 38 -41 3
-2 -16 -4 1 -4 37 0 36 2 53 4 38 2 -16 8 -28 12 -28z m996 -39 c33 -19 84
-53 113 -74 63 -46 80 -44 25 3 -64 54 -2 15 109 -68 93 -70 107 -78 123 -66
14 10 22 11 32 2 7 -6 11 -13 8 -16 -3 -3 4 -15 15 -27 l20 -21 -25 -24 -24
-23 -30 24 c-16 13 -62 51 -103 84 -101 84 -197 152 -308 219 -51 31 -96 59
-99 62 -10 11 81 -36 144 -75z m950 69 c3 -5 1 -10 -4 -10 -6 0 -11 5 -11 10
0 6 2 10 4 10 3 0 8 -4 11 -10z m-1767 -16 c26 -18 30 -74 6 -98 -51 -51 -126
42 -77 96 20 22 42 23 71 2z m-2108 -9 c7 -8 8 -15 2 -15 -5 0 -15 7 -22 15
-7 8 -8 15 -2 15 5 0 15 -7 22 -15z m-115 -5 c3 -5 13 -6 22 -3 15 6 16 5 3
-9 -12 -13 -16 -13 -29 -1 -11 12 -15 12 -22 1 -5 -7 -9 -8 -9 -2 0 22 24 32
35 14z m2343 -13 c15 -12 16 -47 1 -47 -6 0 -9 -6 -6 -12 15 -42 17 -58 8 -58
-6 0 -11 9 -11 19 0 23 -28 54 -41 46 -5 -4 -9 -15 -9 -26 0 -10 -4 -19 -8
-19 -5 0 -5 21 -1 48 4 26 8 52 8 59 1 12 38 6 59 -10z m3532 3 c9 -16 8 -19
-6 -13 -14 5 -16 2 -10 -23 7 -28 7 -28 -9 -9 -16 19 -16 19 -11 -15 4 -25 3
-31 -4 -20 -15 23 -12 58 7 80 21 24 20 24 33 0z m1737 -12 c-3 -8 -6 -5 -6 6
-1 11 2 17 5 13 3 -3 4 -12 1 -19z m-7653 -4 c5 -13 4 -14 -7 -6 -8 7 -18 8
-22 4 -5 -4 -5 -1 -1 6 10 17 23 15 30 -4z m117 -1 c13 -17 13 -17 -6 -3 -11
8 -22 16 -24 17 -2 2 0 3 6 3 6 0 17 -8 24 -17z m7496 -5 c-3 -8 -6 -5 -6 6
-1 11 2 17 5 13 3 -3 4 -12 1 -19z m-4727 -26 c19 -9 66 -35 105 -57 39 -22
86 -48 105 -58 48 -25 179 -123 260 -195 51 -46 70 -58 83 -51 13 8 31 -6 86
-63 62 -65 175 -202 141 -171 -10 9 -17 10 -27 2 -10 -9 -7 -19 18 -53 17 -22
-6 0 -52 49 -248 269 -509 479 -747 599 -29 14 -52 29 -52 32 0 2 10 0 23 -6
12 -6 38 -19 57 -28z m-2803 6 c-3 -8 -6 -5 -6 6 -1 11 2 17 5 13 3 -3 4 -12
1 -19z m4028 -6 c-3 -3 -11 0 -18 7 -9 10 -8 11 6 5 10 -3 15 -9 12 -12z
m-3980 -10 c-3 -3 -11 0 -18 7 -9 10 -8 11 6 5 10 -3 15 -9 12 -12z m611 3
c-2 -15 -34 -44 -49 -45 -5 0 -5 5 -1 12 4 7 3 8 -5 4 -6 -4 -9 -11 -7 -15 8
-12 -53 -53 -66 -45 -6 4 -8 3 -5 -3 3 -5 -26 -36 -65 -69 -39 -32 -116 -106
-171 -164 -55 -58 -81 -80 -56 -50 24 30 82 92 129 139 47 47 84 89 83 93 -2
4 14 19 35 33 20 13 66 47 102 75 70 54 79 58 76 35z m6911 -17 c-3 -7 -5 -2
-5 12 0 14 2 19 5 13 2 -7 2 -19 0 -25z m-3592 12 c3 -6 -1 -7 -9 -4 -18 7
-21 14 -7 14 6 0 13 -4 16 -10z m-3945 -14 c0 -2 -7 -6 -15 -10 -8 -3 -15 -1
-15 4 0 6 7 10 15 10 8 0 15 -2 15 -4z m70 -6 c0 -5 -5 -10 -11 -10 -5 0 -7 5
-4 10 3 6 8 10 11 10 2 0 4 -4 4 -10z m-126 -36 c3 -8 2 -12 -4 -9 -6 3 -10
10 -10 16 0 14 7 11 14 -7z m7593 -6 c-3 -8 -6 -5 -6 6 -1 11 2 17 5 13 3 -3
4 -12 1 -19z m-7442 2 c3 -6 -1 -7 -9 -4 -18 7 -21 14 -7 14 6 0 13 -4 16 -10z
m-45 -4 c0 -2 -8 -10 -17 -17 -16 -13 -17 -12 -4 4 13 16 21 21 21 13z m5773
-29 c-11 -12 -19 -29 -16 -37 2 -9 -1 -7 -7 3 -10 15 -8 23 11 43 12 13 25 22
27 19 3 -3 -4 -15 -15 -28z m-5983 -2 c0 -12 -19 -12 -23 0 -4 9 -1 12 9 8 7
-3 14 -7 14 -8z m125 -26 c-4 -6 -13 -8 -21 -5 -8 3 -14 1 -14 -4 0 -6 -5 -10
-11 -10 -8 0 -8 5 1 15 14 17 55 21 45 4z m-85 -3 c0 -2 -7 -7 -16 -10 -8 -3
-12 -2 -9 4 6 10 25 14 25 6z m204 -17 c-8 -13 -21 -11 -27 5 -4 10 0 12 14 9
10 -3 16 -9 13 -14z m-34 -9 c0 -5 -5 -10 -11 -10 -5 0 -7 5 -4 10 3 6 8 10
11 10 2 0 4 -4 4 -10z m-126 -22 c-3 -5 -12 -4 -20 3 -19 16 -18 18 6 12 11
-3 17 -9 14 -15z m1633 16 c-3 -3 -12 -4 -19 -1 -8 3 -5 6 6 6 11 1 17 -2 13
-5z m118 -14 c-119 -23 -238 -59 -325 -99 -68 -31 -76 -42 -13 -16 l37 16 -24
-28 c-14 -15 -28 -29 -33 -31 -4 -2 -5 -8 -1 -13 3 -5 -2 -12 -10 -15 -8 -3
-20 -21 -26 -40 -6 -19 -15 -34 -20 -34 -4 0 -10 -10 -13 -21 -4 -15 -11 -20
-22 -15 -12 4 -15 1 -13 -12 2 -9 -7 -28 -19 -42 -13 -14 -23 -30 -23 -36 0
-17 -36 -54 -45 -46 -5 4 -5 -1 -2 -11 4 -11 3 -16 -3 -12 -6 3 -13 -2 -16
-12 -13 -41 -28 -63 -42 -61 -8 2 -17 -3 -19 -10 -3 -8 1 -10 14 -5 16 6 17 5
3 -11 -8 -11 -16 -14 -18 -7 -5 15 -33 14 -29 -1 1 -8 -6 -12 -18 -11 -11 1
-14 0 -7 -3 6 -3 12 -10 12 -15 0 -6 -4 -7 -10 -4 -5 3 -10 2 -10 -4 0 -6 -25
-36 -55 -68 -30 -32 -55 -62 -55 -66 0 -12 -27 -37 -39 -37 -6 0 -11 -6 -11
-13 0 -7 -10 -24 -22 -37 -13 -14 -22 -28 -21 -32 2 -5 -2 -8 -7 -8 -6 0 -10
-7 -10 -17 0 -9 -3 -14 -6 -10 -7 6 -64 -52 -64 -65 0 -5 -7 -8 -15 -8 -8 0
-15 -7 -15 -15 0 -8 -5 -15 -11 -15 -6 0 -17 -7 -25 -15 -9 -8 -12 -15 -8 -15
3 0 1 -7 -6 -15 -7 -9 -21 -13 -31 -10 -13 4 -19 1 -19 -9 0 -9 -4 -16 -9 -16
-5 0 -16 -19 -24 -42 -9 -24 -16 -35 -16 -25 -1 9 -3 17 -5 17 -11 0 -74 -67
-79 -85 -15 -49 5 128 22 197 10 43 15 75 10 73 -4 -3 -11 -19 -14 -36 -4 -19
-10 -27 -14 -20 -11 18 -26 -5 -46 -69 -9 -30 -18 -59 -20 -65 -2 -5 -4 -3 -4
6 -1 21 41 157 78 253 53 136 158 309 255 416 188 210 431 361 698 434 76 21
95 19 33 -4 -27 -10 -45 -19 -40 -20 6 0 -15 -14 -45 -31 -64 -35 -55 -33 54
11 91 37 270 78 336 78 34 0 20 -4 -55 -18z m-1673 -12 c-7 -7 -12 -8 -12 -2
0 14 12 26 19 19 2 -3 -1 -11 -7 -17z m198 19 c0 -2 -10 -12 -22 -23 l-23 -19
19 23 c18 21 26 27 26 19z m1313 -4 c-7 -2 -19 -2 -25 0 -7 3 -2 5 12 5 14 0
19 -2 13 -5z m-1353 -47 c0 -2 -8 -10 -17 -17 -16 -13 -17 -12 -4 4 13 16 21
21 21 13z m6262 -43 c-6 -65 -10 -70 -11 -15 0 28 3 52 7 52 4 0 6 -17 4 -37z
m25 15 c-3 -8 -6 -5 -6 6 -1 11 2 17 5 13 3 -3 4 -12 1 -19z m-4607 -13 c0 -8
5 -15 11 -15 6 0 9 -6 6 -12 -2 -7 0 -21 5 -32 7 -13 7 -16 -1 -12 -6 4 -11 2
-11 -3 0 -6 5 -11 10 -11 7 0 8 -6 2 -16 -10 -18 -5 -54 7 -54 4 0 6 -13 3
-30 -2 -18 0 -30 7 -30 6 0 8 -7 5 -15 -4 -8 -1 -15 6 -15 10 0 10 -3 0 -15
-7 -8 -10 -25 -6 -38 5 -20 -2 -27 -47 -49 -41 -21 -47 -27 -28 -27 22 -1 20
-4 -20 -30 -24 -16 -55 -39 -69 -51 -21 -19 -18 -18 25 5 50 26 45 19 -26 -37
-25 -21 -2 -12 91 32 69 32 139 62 155 65 l30 6 -27 -16 c-38 -21 -35 -25 8
-14 19 6 45 9 57 7 15 -2 5 -9 -35 -22 -32 -10 -65 -24 -74 -30 -13 -10 -12
-12 8 -11 13 1 30 5 37 9 7 4 15 5 18 2 3 -3 -7 -11 -23 -17 -145 -60 -244
-120 -304 -185 -34 -37 -35 -37 -5 -18 44 29 88 47 79 32 -5 -8 -2 -9 11 -4
16 6 16 4 4 -11 -16 -19 -10 -16 46 20 19 12 12 3 -19 -27 -32 -31 -46 -51
-42 -62 3 -8 1 -25 -5 -36 -8 -15 -8 -19 0 -14 15 10 14 -5 -2 -29 -8 -11 -19
-33 -24 -50 -26 -73 -26 -71 -14 -55 6 8 11 10 11 5 0 -6 -7 -21 -16 -33 -8
-12 -12 -22 -8 -22 3 0 2 -6 -4 -12 -11 -14 -53 -126 -55 -145 0 -7 -4 -10 -8
-8 -8 5 -42 -79 -36 -89 1 -2 -6 -13 -16 -23 -9 -11 -14 -23 -10 -27 5 -4 1
-6 -7 -4 -9 2 -14 -3 -12 -12 2 -8 -3 -19 -10 -25 -20 -16 -39 -55 -33 -65 4
-6 -1 -10 -9 -10 -9 0 -16 -5 -16 -11 0 -6 -10 -25 -22 -41 -20 -29 -22 -30
-35 -12 -11 15 -13 16 -13 2 0 -24 27 -149 39 -181 13 -32 4 -37 -9 -4 -5 12
-9 15 -9 7 0 -8 14 -52 33 -97 18 -46 32 -83 30 -83 -19 0 -99 182 -128 290
-13 49 -14 51 -15 21 -1 -33 -2 -34 -16 -15 -13 18 -14 17 -11 -16 3 -20 -2
-45 -10 -58 -15 -23 -10 -75 12 -137 4 -11 4 -17 -1 -13 -4 4 -14 3 -22 -3
-10 -9 -13 -8 -13 1 0 9 -3 10 -14 1 -7 -6 -21 -9 -30 -5 -9 3 -16 1 -16 -5 0
-6 -7 -8 -15 -5 -11 5 -14 1 -10 -12 13 -40 -40 66 -85 171 -52 123 -93 261
-111 378 -17 109 -6 358 20 462 61 248 237 531 377 607 115 63 349 145 447
157 4 1 7 -6 7 -14z m-1710 1 c0 -2 -8 -10 -17 -17 -16 -13 -17 -12 -4 4 13
16 21 21 21 13z m6251 -23 c-8 -15 -10 -15 -11 -2 0 17 10 32 18 25 2 -3 -1
-13 -7 -23z m-6476 7 c-3 -5 -14 -10 -23 -10 -15 0 -15 2 -2 10 20 13 33 13
25 0z m6403 -76 l-3 -69 -5 77 c-3 42 -1 73 3 69 4 -4 7 -39 5 -77z m-6373 48
c-3 -3 -11 0 -18 7 -9 10 -8 11 6 5 10 -3 15 -9 12 -12z m6402 -44 c-2 -13 -4
-3 -4 22 0 25 2 35 4 23 2 -13 2 -33 0 -45z m-6317 8 c0 -3 -4 -8 -10 -11 -5
-3 -10 -1 -10 4 0 6 5 11 10 11 6 0 10 -2 10 -4z m-253 -28 c-3 -8 -6 -5 -6 6
-1 11 2 17 5 13 3 -3 4 -12 1 -19z m383 -12 c0 -2 -8 -10 -17 -17 -16 -13 -17
-12 -4 4 13 16 21 21 21 13z m-270 -36 c0 -12 -8 -12 -35 0 -18 8 -17 9 8 9
15 1 27 -3 27 -9z m120 0 c0 -5 -4 -10 -9 -10 -6 0 -13 5 -16 10 -3 6 1 10 9
10 9 0 16 -4 16 -10z m-230 -10 c8 -5 11 -10 5 -10 -5 0 -17 5 -25 10 -8 5
-10 10 -5 10 6 0 17 -5 25 -10z m4071 -17 c13 -16 12 -17 -3 -4 -17 13 -22 21
-14 21 2 0 10 -8 17 -17z m-3681 3 c0 -2 -8 -10 -17 -17 -16 -13 -17 -12 -4 4
13 16 21 21 21 13z m7330 -6 c0 -5 -5 -10 -11 -10 -5 0 -7 5 -4 10 3 6 8 10
11 10 2 0 4 -4 4 -10z m-7640 -25 c7 -9 8 -15 2 -15 -5 0 -12 7 -16 15 -3 8
-4 15 -2 15 2 0 9 -7 16 -15z m280 -9 c0 -2 -8 -10 -17 -17 -16 -13 -17 -12
-4 4 13 16 21 21 21 13z m3575 -16 c10 -11 16 -20 13 -20 -3 0 -13 9 -23 20
-10 11 -16 20 -13 20 3 0 13 -9 23 -20z m3770 -152 c-1 -79 -3 -147 -5 -153
-1 -5 -1 -14 0 -20 5 -23 0 -457 -5 -465 -4 -6 -2 -10 3 -10 5 0 8 -15 6 -32
-1 -18 -3 -73 -4 -123 -1 -50 -7 -96 -13 -104 -9 -12 -9 -13 1 -7 10 6 12 -35
11 -196 -1 -198 4 -266 22 -300 16 -29 10 -30 -17 -1 l-27 28 7 -25 c7 -24 6
-24 -18 5 -28 32 -29 51 -3 49 9 -1 13 4 10 13 -4 11 -10 10 -29 -8 -30 -28
-41 -20 -14 11 24 28 25 31 3 24 -10 -3 -5 2 10 11 28 16 32 37 9 41 -7 1 -8
0 -2 -3 16 -8 11 -26 -6 -19 -10 4 -13 2 -8 -7 4 -6 1 -5 -7 3 -8 8 -21 21
-29 29 -13 12 -13 13 2 8 9 -3 22 1 29 10 11 13 10 17 -4 28 -22 16 -22 26 -1
18 14 -5 15 -3 5 15 -6 11 -11 33 -11 47 0 21 4 26 16 21 13 -5 14 -4 6 7 -9
10 -7 19 9 35 11 12 15 22 10 22 -6 0 -14 -7 -19 -16 -6 -11 -12 -13 -16 -6
-3 6 -2 13 4 17 5 3 7 17 4 31 -4 17 -1 26 10 30 9 3 13 10 10 15 -3 5 0 9 7
9 7 0 9 3 6 6 -4 4 -13 2 -20 -4 -10 -9 -14 -8 -14 3 0 8 4 15 9 15 5 0 6 5 3
10 -3 6 -2 10 3 10 6 0 13 7 16 15 3 10 1 15 -7 14 -6 -1 -20 1 -31 6 -11 5
-21 3 -26 -4 -5 -9 -9 -8 -14 5 -4 9 -2 22 4 28 8 8 10 7 5 -4 -4 -11 2 -15
20 -15 30 0 31 3 8 21 -17 12 -16 13 5 14 12 0 22 -5 22 -11 0 -5 5 -7 10 -4
6 3 10 1 10 -6 0 -7 3 -9 6 -6 4 4 1 13 -6 22 -10 12 -10 15 0 15 10 0 10 3 1
14 -8 9 -8 16 -2 20 11 7 -6 56 -20 56 -5 0 -5 7 -2 17 4 10 2 14 -4 10 -6 -4
-13 0 -16 8 -4 9 -1 12 8 9 9 -4 13 2 11 20 -4 30 2 33 19 9 8 -11 14 -13 19
-5 4 7 2 12 -4 12 -6 0 -8 5 -4 12 4 6 3 8 -3 5 -5 -3 -25 7 -44 23 -26 23
-30 29 -16 30 10 0 16 -4 13 -9 -3 -5 7 -11 24 -13 16 -2 27 -1 24 4 -3 4 -12
8 -19 8 -11 0 -12 6 -5 25 6 15 6 27 0 30 -5 3 -7 12 -3 20 3 8 0 15 -7 15 -6
0 -8 -5 -4 -12 4 -7 3 -8 -4 -4 -13 8 -17 -6 -5 -18 11 -10 12 -36 2 -36 -5 0
-9 5 -9 11 0 5 -4 8 -8 5 -5 -3 -6 8 -4 25 2 16 8 29 12 29 5 0 6 8 3 18 -2
10 3 25 13 33 10 8 15 9 11 2 -9 -14 2 -43 15 -43 6 0 5 6 -2 15 -12 14 -7 19
15 16 6 -1 1 6 -10 14 -11 9 -26 13 -33 10 -10 -4 -12 0 -8 10 3 9 -1 28 -10
43 -15 26 -15 26 1 7 12 -14 19 -16 22 -7 3 6 9 10 14 6 5 -3 9 2 9 10 0 9 -7
16 -15 16 -20 0 -19 19 0 26 18 7 11 43 -12 59 -10 8 -8 10 12 11 14 1 23 -2
20 -6 -3 -5 -1 -11 5 -15 5 -3 10 3 10 14 0 15 -6 21 -22 21 -21 0 -21 0 -2
15 18 14 18 15 -6 12 -26 -2 -27 4 -18 68 2 12 -2 19 -10 17 -8 -1 -11 2 -6 9
5 9 14 4 31 -15 l23 -27 0 25 c0 18 -5 26 -17 26 -15 0 -14 2 2 14 11 8 23 12
27 10 4 -3 4 5 -1 18 -5 13 -16 22 -25 22 -14 -2 -13 2 3 25 14 19 17 31 10
44 -7 12 -6 17 3 17 9 1 8 5 -4 13 -11 9 -13 18 -7 29 7 12 5 19 -7 26 -15 8
-14 12 6 32 19 19 21 19 16 3 -3 -10 -1 -25 5 -33 9 -13 10 -13 8 0 -3 32 1
61 9 56 5 -3 8 -69 7 -148z m-7590 114 c-3 -3 -11 0 -18 7 -9 10 -8 11 6 5 10
-3 15 -9 12 -12z m-140 -2 c3 -5 1 -10 -4 -10 -6 0 -11 5 -11 10 0 6 2 10 4
10 3 0 8 -4 11 -10z m149 -41 c-4 -7 -44 0 -44 7 0 2 11 3 24 2 14 -1 23 -5
20 -9z m156 -19 c-6 -11 -13 -20 -16 -20 -2 0 0 9 6 20 6 11 13 20 16 20 2 0
0 -9 -6 -20z m5880 -1 c0 -6 -4 -8 -10 -4 -5 3 -16 -7 -24 -22 -9 -16 -15 -21
-16 -13 0 22 29 62 41 55 5 -4 9 -11 9 -16z m1475 -18 c3 -5 2 -12 -3 -15 -5
-3 -9 1 -9 9 0 17 3 19 12 6z m-1490 -61 c-20 -22 -35 -18 -35 8 0 14 2 14 9
3 7 -11 12 -10 22 8 8 11 16 16 17 11 2 -6 -4 -20 -13 -30z m1515 25 c11 -13
10 -14 -5 -9 -13 5 -16 4 -11 -4 4 -7 0 -22 -8 -34 -9 -12 -16 -17 -16 -11 0
7 5 15 10 18 6 4 10 12 9 18 -2 18 0 37 5 37 2 0 9 -7 16 -15z m-7585 -15 c3
-5 1 -10 -4 -10 -6 0 -11 5 -11 10 0 6 2 10 4 10 3 0 8 -4 11 -10z m6088 -54
c4 -10 1 -13 -8 -10 -7 3 -19 -4 -25 -16 -6 -12 -14 -19 -17 -16 -7 7 25 56
36 56 5 0 11 -7 14 -14z m1497 -16 c0 -5 -5 -10 -11 -10 -5 0 -7 5 -4 10 3 6
8 10 11 10 2 0 4 -4 4 -10z m-6397 -35 c-3 -9 -8 -14 -10 -11 -3 3 -2 9 2 15
9 16 15 13 8 -4z m-1186 -1 c-3 -3 -12 -4 -19 -1 -8 3 -5 6 6 6 11 1 17 -2 13
-5z m6073 -24 c-12 -22 -31 -23 -38 -2 -2 7 2 10 11 6 8 -3 17 2 21 12 4 9 9
14 12 11 3 -3 0 -15 -6 -27z m-2 -75 c15 -32 15 -35 2 -35 -5 0 -10 7 -10 16
0 10 -6 14 -15 10 -17 -6 -18 -4 -9 18 9 23 19 20 32 -9z m1502 -100 c0 -12
-19 -12 -23 0 -4 9 -1 12 9 8 7 -3 14 -7 14 -8z m-5456 -57 c-16 -18 -32 -37
-36 -42 -5 -6 -8 -7 -8 -3 0 8 60 77 68 77 3 0 -7 -15 -24 -32z m-68 -105 c-8
-15 -15 -25 -16 -21 0 12 23 58 27 54 3 -2 -2 -17 -11 -33z m-25 -64 c-5 -13
-10 -19 -10 -12 -1 15 10 45 15 40 3 -2 0 -15 -5 -28z m5535 -119 c0 -28 -13
-25 -18 4 -3 15 -1 23 6 20 7 -3 12 -13 12 -24z m-5331 -99 c0 -98 -2 -116
-12 -98 -12 23 -16 19 -26 -28 -3 -11 -5 9 -6 44 -1 38 7 91 19 132 12 38 22
69 23 69 1 0 2 -54 2 -119z m-1718 77 c-3 -8 -6 -5 -6 6 -1 11 2 17 5 13 3 -3
4 -12 1 -19z m7017 -23 c-4 -8 -11 -12 -16 -9 -6 4 -5 10 3 15 19 12 19 11 13
-6z m23 -39 c-3 -8 1 -22 10 -33 14 -17 14 -17 9 1 -6 16 -4 17 9 6 15 -12 15
-14 -1 -23 -12 -7 -19 -5 -26 7 -8 14 -12 15 -26 4 -15 -12 -16 -11 -3 5 7 9
10 17 6 17 -4 0 -2 7 5 15 16 19 24 19 17 1z m-6980 -28 c-3 -8 -6 -5 -6 6 -1
11 2 17 5 13 3 -3 4 -12 1 -19z m6507 -27 c-3 5 2 9 11 9 9 0 13 -5 9 -11 -4
-7 10 -9 50 -4 41 5 56 4 56 -5 0 -8 10 -9 30 -5 19 4 30 3 30 -5 0 -6 -39
-50 -86 -98 -48 -48 -66 -63 -40 -33 26 30 44 56 41 59 -7 7 26 43 35 37 4 -2
15 4 25 15 17 19 16 19 -21 14 -33 -5 -52 -19 -121 -92 -46 -47 -83 -82 -83
-77 0 5 32 41 71 81 39 41 68 78 64 84 -3 5 -19 10 -34 10 -49 0 -121 12 -116
20 3 4 23 4 45 0 21 -4 37 -3 34 1z m506 -23 c0 -12 -25 -9 -38 4 -10 10 -15
10 -22 -2 -5 -8 -10 -10 -10 -4 0 22 21 32 46 20 13 -6 24 -14 24 -18z m-3073
-20 c-3 -8 -6 -5 -6 6 -1 11 2 17 5 13 3 -3 4 -12 1 -19z m3507 0 c10 -38 7
-110 -4 -103 -6 4 -7 23 -4 44 4 24 2 41 -5 45 -7 5 -11 -2 -12 -16 0 -13 -2
-44 -4 -70 -2 -26 0 -50 5 -53 6 -4 10 3 10 14 0 12 5 21 10 21 12 0 3 -48
-13 -67 -18 -24 -27 -1 -27 71 0 103 27 174 44 114z m-3497 -40 c-3 -8 -6 -5
-6 6 -1 11 2 17 5 13 3 -3 4 -12 1 -19z m-338 -58 c0 -9 -4 -8 -9 5 -5 11 -9
27 -9 35 0 9 4 8 9 -5 5 -11 9 -27 9 -35z m3381 31 c0 -5 -6 -14 -14 -21 -8
-6 -12 -18 -9 -26 3 -10 0 -12 -10 -8 -13 5 -13 9 1 35 17 28 32 38 32 20z
m310 -41 c-11 -11 -20 -32 -21 -47 -1 -25 -3 -71 -8 -128 0 -11 -17 -31 -36
-44 -48 -33 -65 -18 -65 58 1 71 12 91 80 140 60 43 81 52 50 21z m-3683 -32
c-3 -8 -6 -5 -6 6 -1 11 2 17 5 13 3 -3 4 -12 1 -19z m3697 -9 c-14 -16 -16
-23 -6 -26 8 -3 10 -9 3 -16 -5 -7 -11 -21 -14 -32 -2 -11 -5 1 -6 27 -1 35 3
50 17 57 26 15 27 13 6 -10z m-3337 -31 c-3 -8 -6 -5 -6 6 -1 11 2 17 5 13 3
-3 4 -12 1 -19z m2488 12 c-3 -5 -16 -10 -28 -9 -20 1 -20 2 3 9 14 4 26 8 28
9 2 1 0 -3 -3 -9z m495 -11 c0 -6 -4 -7 -10 -4 -5 3 -10 11 -10 16 0 6 5 7 10
4 6 -3 10 -11 10 -16z m-270 -6 c0 -9 -18 -11 -67 -7 -119 10 -138 23 -31 21
69 -1 98 -6 98 -14z m-2843 -35 c-3 -8 -6 -5 -6 6 -1 11 2 17 5 13 3 -3 4 -12
1 -19z m-199 -53 c0 -16 -2 -15 -8 5 -4 14 -8 34 -8 45 0 16 2 15 8 -5 4 -14
8 -34 8 -45z m339 33 c-3 -8 -6 -5 -6 6 -1 11 2 17 5 13 3 -3 4 -12 1 -19z
m-130 -50 c-3 -7 -5 -2 -5 12 0 14 2 19 5 13 2 -7 2 -19 0 -25z m2743 12 c0
-6 -15 -9 -32 -8 -28 3 -34 -1 -36 -21 -3 -20 0 -23 17 -18 40 10 69 -51 39
-81 -18 -18 -78 -16 -78 3 0 13 3 13 20 3 16 -11 23 -10 37 5 23 22 7 51 -31
55 -22 3 -26 8 -26 38 0 34 0 34 45 34 25 0 45 -5 45 -10z m710 6 c0 -2 -8
-10 -17 -17 -16 -13 -17 -12 -4 4 13 16 21 21 21 13z m-365 -36 c10 -11 16
-20 13 -20 -3 0 -13 9 -23 20 -10 11 -16 20 -13 20 3 0 13 -9 23 -20z m-3277
-90 c0 -16 -3 -11 -9 15 -4 22 -8 51 -7 65 0 16 3 11 9 -15 4 -22 8 -51 7 -65z
m199 38 c-3 -7 -5 -2 -5 12 0 14 2 19 5 13 2 -7 2 -19 0 -25z m-526 -363 c-3
-49 -7 -76 -9 -60 -5 30 -5 30 -12 5 -3 -14 -6 55 -6 152 1 97 4 169 8 160 5
-12 7 -9 9 13 6 59 14 -182 10 -270z m336 238 c-3 -10 -5 -2 -5 17 0 19 2 27
5 18 2 -10 2 -26 0 -35z m10 -110 c-2 -16 -4 -5 -4 22 0 28 2 40 4 28 2 -13 2
-35 0 -50z m3313 46 c0 -6 -4 -7 -10 -4 -5 3 -10 11 -10 16 0 6 5 7 10 4 6 -3
10 -11 10 -16z m-5910 -69 c6 -11 8 -20 6 -20 -3 0 -10 9 -16 20 -6 11 -8 20
-6 20 3 0 10 -9 16 -20z m6020 5 c11 -13 10 -14 -4 -9 -9 3 -16 10 -16 15 0
13 6 11 20 -6z m-3783 -247 c-3 -8 -6 -5 -6 6 -1 11 2 17 5 13 3 -3 4 -12 1
-19z m-283 -675 c-61 -95 -191 -235 -286 -310 -31 -25 -59 -51 -62 -60 -3 -8
-10 -12 -14 -9 -5 3 -18 -1 -28 -9 -17 -13 -17 -14 -2 -15 9 0 61 35 116 79
96 77 203 188 271 284 19 26 36 47 38 47 7 0 -9 -23 -73 -106 -131 -169 -335
-333 -526 -423 -97 -46 -121 -52 -68 -19 19 12 38 21 43 20 4 -1 7 3 7 9 0 7
-7 8 -17 4 -66 -26 -206 -75 -216 -75 -7 0 35 18 93 40 135 51 221 96 343 178
108 72 275 231 347 330 45 63 67 85 34 35z m-2270 -54 c-3 -5 -10 -7 -15 -3
-5 3 -7 10 -3 15 3 5 10 7 15 3 5 -3 7 -10 3 -15z m103 -65 c38 -28 100 -70
138 -94 99 -61 104 -71 10 -20 -101 54 -196 120 -189 131 3 5 -1 6 -9 4 -7 -3
-21 3 -31 14 -33 36 9 18 81 -35z m2424 -81 c-5 -10 -17 -27 -26 -38 -16 -19
-17 -19 -3 5 26 46 29 50 34 50 3 0 0 -8 -5 -17z m-2791 -72 c0 -5 -20 -17
-45 -28 -25 -10 -45 -21 -45 -25 0 -4 10 -14 22 -22 12 -9 19 -19 15 -23 -4
-3 -21 6 -37 22 l-30 29 47 27 c51 29 73 35 73 20z m2676 -95 c-36 -47 -71
-88 -77 -91 -5 -4 23 36 63 88 40 51 75 93 77 91 2 -2 -26 -41 -63 -88z
m-2606 34 c8 -15 7 -27 -5 -49 -17 -35 -46 -46 -75 -31 -29 16 -25 19 18 14
37 -5 37 -5 15 12 -22 16 -31 53 -16 67 14 14 53 6 63 -13z m-324 -32 l29 -33
-32 29 c-31 28 -38 36 -30 36 2 0 16 -15 33 -32z m431 -47 c-7 -8 -11 -22 -9
-31 1 -9 -6 -24 -17 -34 -16 -14 -23 -15 -41 -6 -16 9 -25 9 -36 -1 -9 -7 -14
-8 -14 -1 0 6 5 14 10 17 6 3 10 16 10 29 0 33 18 45 65 43 36 -2 41 -4 32
-16z m-392 -21 c10 -11 16 -20 13 -20 -3 0 -13 9 -23 20 -10 11 -16 20 -13 20
3 0 13 -9 23 -20z m55 -15 c13 -14 21 -25 18 -25 -2 0 -15 11 -28 25 -13 14
-21 25 -18 25 2 0 15 -11 28 -25z m-50 -20 c13 -14 21 -25 18 -25 -2 0 -15 11
-28 25 -13 14 -21 25 -18 25 2 0 15 -11 28 -25z m540 -55 c0 -48 33 -70 43
-29 3 12 10 18 15 15 11 -7 -27 -106 -40 -106 -5 0 -20 7 -33 16 -28 18 -33
52 -9 61 12 4 14 14 9 40 -4 24 -3 33 4 28 6 -3 11 -15 11 -25z m-479 3 c13
-16 12 -17 -3 -4 -10 7 -18 15 -18 17 0 8 8 3 21 -13z m2709 14 c0 -2 -17 -19
-37 -38 l-38 -34 34 38 c33 34 41 42 41 34z m-2659 -24 c13 -16 12 -17 -3 -4
-10 7 -18 15 -18 17 0 8 8 3 21 -13z m2269 -59 c3 -35 8 -54 13 -46 5 6 16 12
25 12 13 -1 9 -7 -13 -25 -16 -14 -33 -25 -37 -25 -5 0 -8 27 -8 61 0 50 -3
60 -15 55 -8 -3 -22 -9 -30 -12 -8 -3 -15 -2 -15 3 0 11 52 43 65 39 6 -1 12
-29 15 -62z m-320 16 c-8 -5 -22 -9 -30 -9 -10 0 -8 3 5 9 27 12 43 12 25 0z
m-1372 -68 c2 -38 -1 -62 -8 -62 -6 0 -10 24 -10 58 l-1 57 -30 -37 c-17 -21
-38 -38 -46 -38 -11 0 -3 15 23 44 54 61 68 56 72 -22z m1219 52 c-3 -3 -12
-4 -19 -1 -8 3 -5 6 6 6 11 1 17 -2 13 -5z m-50 -10 c-3 -3 -12 -4 -19 -1 -8
3 -5 6 6 6 11 1 17 -2 13 -5z m108 -4 c-27 -12 -43 -12 -25 0 8 5 22 9 30 9
10 0 8 -3 -5 -9z m695 -5 c-7 -9 -32 -30 -54 -47 -35 -26 -34 -24 9 15 52 48
67 58 45 32z m-853 -1 c-3 -3 -12 -4 -19 -1 -8 3 -5 6 6 6 11 1 17 -2 13 -5z
m402 -53 c-15 -51 -2 -74 31 -53 23 14 27 0 5 -18 -20 -16 -54 -3 -61 24 -3
12 0 34 6 50 9 24 8 27 -5 22 -8 -3 -22 -9 -30 -12 -30 -12 -14 13 18 28 42
21 51 10 36 -41z m-1369 19 c21 -13 5 -23 -19 -11 -28 15 -38 -5 -15 -30 16
-18 16 -19 -4 -19 -28 0 -29 -26 -2 -35 11 -3 20 -11 20 -16 0 -13 -12 -11
-38 7 -22 15 -31 54 -11 54 6 0 8 9 4 20 -3 11 -3 24 0 30 8 13 45 13 65 0z
m50 -30 c0 -5 -4 -10 -10 -10 -5 0 -10 5 -10 10 0 6 5 10 10 10 6 0 10 -4 10
-10z m1233 -3 l30 6 -5 -47 c-8 -67 -23 -78 -44 -32 -10 20 -24 36 -32 36 -9
0 -12 6 -8 16 3 9 6 21 6 27 0 8 3 8 11 0 7 -7 25 -9 42 -6z m-1148 -21 c27
-41 -11 -118 -50 -103 -22 9 -18 24 6 23 12 -1 24 6 27 14 3 8 1 12 -3 8 -14
-13 -45 12 -45 35 0 48 40 61 65 23z m1585 10 c0 -2 -8 -10 -17 -17 -16 -13
-17 -12 -4 4 13 16 21 21 21 13z m-577 -27 c-1 -8 -7 -29 -15 -47 -11 -28 -11
-34 2 -42 8 -5 22 -4 33 2 15 8 18 7 15 -4 -7 -19 -59 -16 -72 4 -8 13 -6 26
7 54 17 35 17 36 0 29 -10 -3 -20 -7 -23 -8 -3 -1 -6 3 -8 8 -3 10 35 25 53
20 6 -1 9 -8 8 -16z m512 -24 c-16 -14 -34 -25 -40 -25 -9 0 55 49 65 49 3 0
-8 -11 -25 -24z m-1355 -15 c10 0 22 -4 25 -10 7 -12 -45 -80 -61 -80 -15 0
-23 91 -9 106 7 9 12 8 18 -2 4 -8 17 -14 27 -14z m759 4 c33 -42 24 -104 -16
-104 -30 0 -68 102 -46 123 14 15 43 6 62 -19z m156 6 c-3 -5 -16 -10 -28 -10
-18 0 -19 2 -7 10 20 13 43 13 35 0z m-253 -17 c53 -60 17 -143 -38 -88 -23
23 -34 82 -17 98 12 13 40 7 55 -10z m-752 -3 c12 -8 9 -10 -12 -10 -16 0 -28
5 -28 10 0 13 20 13 40 0z m170 0 c0 -5 -4 -10 -10 -10 -5 0 -10 5 -10 10 0 6
5 10 10 10 6 0 10 -4 10 -10z m70 -34 c0 -26 5 -46 13 -49 9 -4 8 -8 -3 -16
-26 -19 -30 -12 -30 49 0 33 4 60 10 60 6 0 10 -20 10 -44z m366 8 c11 -45 29
-44 28 1 -2 42 13 46 22 8 3 -16 8 -36 11 -45 3 -12 -2 -18 -14 -19 -10 -1
-37 -3 -60 -5 -46 -4 -52 1 -63 53 -6 24 -5 33 3 30 7 -2 14 -17 17 -33 3 -18
12 -30 24 -32 17 -4 18 0 12 37 -8 50 7 54 20 5z m-206 -1 c0 -16 5 -35 10
-43 15 -22 30 6 23 42 -8 41 12 34 23 -8 12 -45 28 -45 32 1 4 42 22 47 22 6
0 -16 2 -36 5 -44 5 -11 -7 -14 -55 -15 -49 0 -62 3 -70 18 -13 24 -13 70 0
70 6 0 10 -12 10 -27z m980 12 c0 -2 -10 -9 -22 -15 -22 -11 -22 -10 -4 4 21
17 26 19 26 11z m-1210 -55 c0 -5 -4 -10 -10 -10 -5 0 -10 5 -10 10 0 6 5 10
10 10 6 0 10 -4 10 -10z"/>
<path d="M6000 9010 c0 -5 5 -10 11 -10 5 0 7 5 4 10 -3 6 -8 10 -11 10 -2 0
-4 -4 -4 -10z"/>
<path d="M6137 9013 c-4 -3 -7 -11 -7 -17 0 -6 5 -5 12 2 6 6 9 14 7 17 -3 3
-9 2 -12 -2z"/>
<path d="M5527 8873 c-3 -5 -2 -15 2 -22 7 -10 10 -10 16 -1 4 6 3 16 -3 22
-5 5 -12 6 -15 1z"/>
<path d="M5491 8844 c0 -11 3 -14 6 -6 3 7 2 16 -1 19 -3 4 -6 -2 -5 -13z"/>
<path d="M5445 8830 c-3 -6 1 -7 9 -4 18 7 21 14 7 14 -6 0 -13 -4 -16 -10z"/>
<path d="M5528 8813 c-6 -23 1 -43 13 -43 6 0 7 6 2 13 -4 6 -6 20 -5 30 2 9
1 17 -1 17 -3 0 -7 -8 -9 -17z"/>
<path d="M5955 8750 c3 -5 8 -10 11 -10 2 0 4 5 4 10 0 6 -5 10 -11 10 -5 0
-7 -4 -4 -10z"/>
<path d="M5750 8730 c0 -5 5 -10 11 -10 5 0 7 5 4 10 -3 6 -8 10 -11 10 -2 0
-4 -4 -4 -10z"/>
<path d="M5398 8723 c7 -3 16 -2 19 1 4 3 -2 6 -13 5 -11 0 -14 -3 -6 -6z"/>
<path d="M5885 8720 c3 -5 2 -10 -3 -10 -6 0 -13 -7 -16 -16 -4 -12 -2 -15 9
-10 9 3 27 -8 46 -27 23 -24 28 -27 19 -9 -6 12 -20 28 -30 35 -11 6 -20 15
-20 20 0 4 6 5 13 1 8 -5 8 -2 -2 9 -15 18 -26 23 -16 7z"/>
<path d="M5525 8710 c3 -5 8 -10 11 -10 2 0 4 5 4 10 0 6 -5 10 -11 10 -5 0
-7 -4 -4 -10z"/>
<path d="M5660 8705 c-7 -9 -8 -15 -2 -15 5 0 12 7 16 15 3 8 4 15 2 15 -2 0
-9 -7 -16 -15z"/>
<path d="M5765 8701 c-3 -5 -1 -12 5 -16 5 -3 10 1 10 9 0 18 -6 21 -15 7z"/>
<path d="M5980 8701 c0 -6 4 -13 10 -16 6 -3 7 1 4 9 -7 18 -14 21 -14 7z"/>
<path d="M5788 8676 c-10 -7 -15 -16 -12 -19 4 -3 13 1 21 9 20 19 13 26 -9
10z"/>
<path d="M5827 8663 c-4 -3 -7 -11 -7 -17 0 -6 5 -5 12 2 6 6 9 14 7 17 -3 3
-9 2 -12 -2z"/>
<path d="M5855 8650 c-10 -12 -13 -20 -7 -20 7 0 12 4 12 9 0 5 8 11 18 13 11
2 13 6 6 10 -6 4 -19 -1 -29 -12z"/>
<path d="M5370 8640 c0 -5 5 -10 11 -10 5 0 7 5 4 10 -3 6 -8 10 -11 10 -2 0
-4 -4 -4 -10z"/>
<path d="M5755 8630 c3 -5 12 -7 20 -3 21 7 19 13 -6 13 -11 0 -18 -4 -14 -10z"/>
<path d="M5903 8633 c4 -3 2 -12 -4 -20 -9 -9 -8 -13 0 -13 6 0 11 2 11 4 0 2
3 11 6 20 4 10 1 16 -7 16 -7 0 -9 -3 -6 -7z"/>
<path d="M5617 8599 c7 -7 15 -10 18 -7 3 3 -2 9 -12 12 -14 6 -15 5 -6 -5z"/>
<path d="M5773 8602 c-8 -5 -8 -12 3 -26 13 -19 14 -19 14 7 0 30 0 30 -17 19z"/>
<path d="M5845 8600 c-3 -6 1 -7 9 -4 18 7 21 14 7 14 -6 0 -13 -4 -16 -10z"/>
<path d="M5651 8577 c-13 -21 -12 -21 5 -5 10 10 16 20 13 22 -3 3 -11 -5 -18
-17z"/>
<path d="M5804 8536 c-9 -20 -9 -23 2 -19 8 3 14 14 14 24 0 25 -3 24 -16 -5z"/>
<path d="M5732 8525 c-15 -32 -15 -35 0 -35 6 0 8 3 5 7 -4 3 0 17 8 30 9 13
12 23 7 23 -5 0 -14 -11 -20 -25z"/>
<path d="M5741 8476 c-16 -19 -11 -29 8 -17 7 5 12 14 9 21 -3 9 -8 7 -17 -4z"/>
<path d="M5695 8449 c-4 -6 -5 -12 -2 -15 2 -3 7 2 10 11 7 17 1 20 -8 4z"/>
<path d="M5506 8423 c-6 -14 -5 -15 5 -6 7 7 10 15 7 18 -3 3 -9 -2 -12 -12z"/>
<path d="M5725 8393 c-10 -23 -14 -56 -5 -46 14 17 29 63 21 63 -5 0 -12 -8
-16 -17z"/>
<path d="M5490 8386 c0 -2 8 -10 18 -17 15 -13 16 -12 3 4 -13 16 -21 21 -21
13z"/>
<path d="M5516 8327 c3 -10 9 -15 12 -12 3 3 0 11 -7 18 -10 9 -11 8 -5 -6z"/>
<path d="M5685 8320 c-4 -6 -11 -8 -16 -5 -5 4 -9 1 -9 -4 0 -15 13 -14 36 4
10 8 14 15 7 15 -6 0 -15 -5 -18 -10z"/>
<path d="M5536 8301 c-3 -5 1 -11 9 -14 9 -4 12 -1 8 9 -6 16 -10 17 -17 5z"/>
<path d="M5690 8287 c0 -16 40 -43 62 -43 34 1 42 10 23 26 -12 10 -15 10 -15
0 0 -10 -3 -10 -15 0 -13 11 -14 10 -9 -6 6 -16 4 -16 -15 4 -20 20 -31 27
-31 19z"/>
<path d="M5796 8268 c3 -4 11 -5 19 -1 21 7 19 12 -4 10 -11 0 -18 -5 -15 -9z"/>
<path d="M5486 8235 c4 -8 11 -15 16 -15 6 0 5 6 -2 15 -7 8 -14 15 -16 15 -2
0 -1 -7 2 -15z"/>
<path d="M5800 8239 c0 -5 5 -7 10 -4 6 3 10 8 10 11 0 2 -4 4 -10 4 -5 0 -10
-5 -10 -11z"/>
<path d="M5544 8192 c1 -22 25 -47 34 -37 4 4 1 10 -5 12 -7 3 -13 11 -13 18
0 8 -4 16 -9 19 -5 3 -8 -2 -7 -12z"/>
<path d="M5800 8199 c0 -7 3 -9 7 -6 3 4 13 1 21 -6 13 -10 14 -9 10 3 -6 19
-38 26 -38 9z"/>
<path d="M5280 8189 c0 -5 5 -7 10 -4 6 3 10 8 10 11 0 2 -4 4 -10 4 -5 0 -10
-5 -10 -11z"/>
<path d="M5720 8190 c0 -6 5 -10 11 -10 7 0 18 -8 26 -17 13 -16 13 -16 4 3
-11 23 -41 40 -41 24z"/>
<path d="M5780 8171 c0 -5 5 -13 10 -16 6 -3 10 -2 10 4 0 5 -4 13 -10 16 -5
3 -10 2 -10 -4z"/>
<path d="M5700 8160 c0 -5 5 -10 10 -10 6 0 10 5 10 10 0 6 -4 10 -10 10 -5 0
-10 -4 -10 -10z"/>
<path d="M5815 8150 c3 -5 8 -10 11 -10 2 0 4 5 4 10 0 6 -5 10 -11 10 -5 0
-7 -4 -4 -10z"/>
<path d="M5785 8121 c2 -9 4 -19 4 -23 1 -5 6 -8 12 -8 8 0 8 5 -1 15 -10 12
-10 15 3 15 9 0 19 -4 22 -10 8 -13 25 -13 25 -1 0 9 -27 22 -56 27 -7 1 -10
-5 -9 -15z"/>
<path d="M5744 8116 c11 -9 14 -16 7 -16 -22 0 5 -33 30 -35 l22 -2 -21 17
c-12 10 -19 20 -16 23 3 3 -5 10 -18 17 -22 11 -22 10 -4 -4z"/>
<path d="M5662 8108 c-17 -17 -15 -27 6 -24 9 2 16 6 15 10 -6 23 -9 26 -21
14z"/>
<path d="M5560 8089 c0 -5 5 -7 10 -4 6 3 10 8 10 11 0 2 -4 4 -10 4 -5 0 -10
-5 -10 -11z"/>
<path d="M5703 8078 c-2 -16 1 -18 10 -9 7 7 8 14 1 21 -6 6 -10 2 -11 -12z"/>
<path d="M5830 8080 c0 -5 5 -10 10 -10 6 0 10 5 10 10 0 6 -4 10 -10 10 -5 0
-10 -4 -10 -10z"/>
<path d="M7055 8830 c-4 -7 -2 -16 6 -21 18 -11 23 -4 11 17 -7 12 -11 13 -17
4z"/>
<path d="M6290 8370 c-25 -49 -25 -60 0 -60 13 0 27 14 40 40 25 49 25 60 0
60 -13 0 -27 -14 -40 -40z"/>
<path d="M3725 8080 c-3 -5 3 -10 15 -10 12 0 18 5 15 10 -3 6 -10 10 -15 10
-5 0 -12 -4 -15 -10z"/>
<path d="M3770 8070 c0 -5 6 -10 14 -10 8 0 18 5 21 10 3 6 -3 10 -14 10 -12
0 -21 -4 -21 -10z"/>
<path d="M2014 7935 c-19 -14 -19 -14 2 -15 11 0 29 7 40 15 19 14 19 14 -2
15 -11 0 -29 -7 -40 -15z"/>
<path d="M2150 7262 c0 -7 -3 -11 -7 -9 -9 2 -13 -6 -13 -25 0 -7 7 -2 16 10
9 13 13 26 10 29 -3 4 -6 1 -6 -5z"/>
<path d="M2100 7190 c0 -5 5 -10 10 -10 6 0 10 5 10 10 0 6 -4 10 -10 10 -5 0
-10 -4 -10 -10z"/>
<path d="M8653 7095 c0 -10 4 -12 12 -5 7 5 15 7 18 3 4 -3 7 -1 7 5 0 7 -8
12 -18 12 -10 0 -19 -7 -19 -15z"/>
<path d="M1325 7094 c9 -9 19 -13 23 -10 3 4 0 11 -8 16 -24 15 -33 11 -15 -6z"/>
<path d="M1570 7001 c0 -5 11 -8 25 -6 14 1 28 -2 31 -6 3 -5 10 -9 17 -9 8 0
8 3 0 11 -14 14 -73 22 -73 10z"/>
<path d="M7096 7022 c-3 -6 1 -13 10 -16 23 -9 28 -2 10 13 -8 7 -17 8 -20 3z"/>
<path d="M7045 6990 c-3 -5 -1 -10 4 -10 6 0 11 5 11 10 0 6 -2 10 -4 10 -3 0
-8 -4 -11 -10z"/>
<path d="M7085 6960 c-3 -6 1 -7 9 -4 18 7 21 14 7 14 -6 0 -13 -4 -16 -10z"/>
<path d="M7240 6876 c0 -2 7 -9 15 -16 13 -11 14 -10 9 4 -5 14 -24 23 -24 12z"/>
<path d="M8735 6970 c-3 -5 -2 -10 4 -10 5 0 13 5 16 10 3 6 2 10 -4 10 -5 0
-13 -4 -16 -10z"/>
<path d="M8716 6555 c4 -8 8 -15 10 -15 2 0 4 7 4 15 0 8 -4 15 -10 15 -5 0
-7 -7 -4 -15z"/>
<path d="M5545 7012 c-29 -6 -48 -23 -36 -35 11 -11 66 0 81 17 12 16 -11 25
-45 18z"/>
<path d="M5667 6979 c-25 -15 -12 -29 27 -29 33 0 62 20 49 33 -10 10 -56 8
-76 -4z"/>
<path d="M6073 6855 c-14 -11 -15 -14 -3 -14 8 0 24 4 34 8 17 6 17 8 4 14 -9
3 -24 -1 -35 -8z"/>
<path d="M8726 6461 c-4 -7 -5 -15 -2 -18 9 -9 19 4 14 18 -4 11 -6 11 -12 0z"/>
<path d="M8721 6404 c-12 -14 -11 -16 4 -12 10 1 20 9 23 16 5 17 -10 15 -27
-4z"/>
<path d="M8800 6409 c0 -5 5 -7 10 -4 6 3 10 8 10 11 0 2 -4 4 -10 4 -5 0 -10
-5 -10 -11z"/>
<path d="M8806 6364 c-5 -14 -4 -15 9 -4 17 14 19 20 6 20 -5 0 -12 -7 -15
-16z"/>
<path d="M8720 6296 c0 -2 7 -7 16 -10 8 -3 12 -2 9 4 -6 10 -25 14 -25 6z"/>
<path d="M8756 6264 c-8 -22 -4 -25 11 -9 7 8 9 16 4 19 -5 3 -12 -1 -15 -10z"/>
<path d="M1190 6466 c0 -2 7 -7 16 -10 8 -3 12 -2 9 4 -6 10 -25 14 -25 6z"/>
<path d="M1470 6409 c0 -5 5 -7 10 -4 6 3 10 8 10 11 0 2 -4 4 -10 4 -5 0 -10
-5 -10 -11z"/>
<path d="M5735 6389 c-4 -6 -1 -15 6 -20 20 -13 54 -6 54 11 0 18 -50 26 -60
9z"/>
<path d="M5449 5883 c-13 -16 -12 -17 4 -4 9 7 17 15 17 17 0 8 -8 3 -21 -13z"/>
<path d="M6215 6071 c-7 -12 22 -41 40 -41 21 0 28 19 15 35 -14 17 -46 20
-55 6z"/>
<path d="M5933 5784 l-28 -25 33 22 c17 13 32 24 32 26 0 8 -11 1 -37 -23z"/>
<path d="M5874 5738 l-19 -23 23 19 c21 18 27 26 19 26 -2 0 -12 -10 -23 -22z"/>
<path d="M5217 5706 c-64 -51 -123 -98 -130 -106 -14 -16 173 126 223 169 70
60 22 28 -93 -63z"/>
<path d="M5019 5549 l-24 -20 28 17 c15 9 27 18 27 20 0 8 -8 4 -31 -17z"/>
<path d="M8674 5499 c0 -10 4 -19 8 -19 4 0 8 6 8 14 0 8 -4 17 -8 20 -4 2 -8
-4 -8 -15z"/>
<path d="M5998 5677 c-75 -62 -143 -119 -150 -127 -10 -10 -8 -10 7 1 11 9 79
62 150 119 149 117 153 120 140 119 -6 0 -72 -51 -147 -112z"/>
<path d="M5759 5483 l-24 -28 30 25 c17 14 32 26 34 28 2 1 0 2 -6 2 -5 0 -20
-12 -34 -27z"/>
<path d="M5614 5368 l-19 -23 23 19 c21 18 27 26 19 26 -2 0 -12 -10 -23 -22z"/>
<path d="M5523 5294 l-28 -25 33 22 c17 13 32 24 32 26 0 8 -11 1 -37 -23z"/>
<path d="M5411 5209 c-68 -54 -65 -61 4 -8 50 38 62 49 51 49 -2 0 -26 -18
-55 -41z"/>
<path d="M5826 5375 c-337 -270 -355 -285 -344 -285 4 0 114 86 245 190 131
105 284 227 341 272 56 45 102 83 102 85 0 12 -51 -27 -344 -262z"/>
<path d="M5734 5628 l-19 -23 23 19 c21 18 27 26 19 26 -2 0 -12 -10 -23 -22z"/>
<path d="M5639 5553 c-13 -16 -12 -17 4 -4 9 7 17 15 17 17 0 8 -8 3 -21 -13z"/>
<path d="M5279 5593 c-13 -16 -12 -17 4 -4 9 7 17 15 17 17 0 8 -8 3 -21 -13z"/>
<path d="M5094 5448 l-19 -23 23 19 c21 18 27 26 19 26 -2 0 -12 -10 -23 -22z"/>
<path d="M1845 5010 c-3 -5 -2 -10 4 -10 5 0 13 5 16 10 3 6 2 10 -4 10 -5 0
-13 -4 -16 -10z"/>
<path d="M4675 4890 c10 -11 20 -20 23 -20 3 0 -3 9 -13 20 -10 11 -20 20 -23
20 -3 0 3 -9 13 -20z"/>
<path d="M4376 4822 c5 -4 32 -25 59 -46 l50 -38 -50 46 c-27 25 -54 46 -59
46 -6 0 -6 -3 0 -8z"/>
<path d="M4505 4720 c10 -11 20 -20 23 -20 3 0 -3 9 -13 20 -10 11 -20 20 -23
20 -3 0 3 -9 13 -20z"/>
<path d="M3323 4992 c-12 -8 -18 -31 -15 -64 2 -22 47 -34 67 -18 21 17 19 53
-3 73 -20 19 -31 21 -49 9z"/>
<path d="M3450 4951 c0 -20 25 -35 41 -25 14 9 10 31 -7 38 -26 10 -34 7 -34
-13z"/>
<path d="M1820 4900 c-9 -6 -10 -10 -3 -10 6 0 15 5 18 10 8 12 4 12 -15 0z"/>
<path d="M1759 4853 c-13 -16 -12 -17 4 -4 9 7 17 15 17 17 0 8 -8 3 -21 -13z"/>
<path d="M2295 4240 c-3 -5 -2 -10 4 -10 5 0 13 5 16 10 3 6 2 10 -4 10 -5 0
-13 -4 -16 -10z"/>
<path d="M8640 4070 c0 -13 12 -19 26 -13 21 8 17 19 -6 19 -11 0 -20 -3 -20
-6z"/>
<path d="M8675 3940 c3 -5 8 -10 11 -10 2 0 4 5 4 10 0 6 -5 10 -11 10 -5 0
-7 -4 -4 -10z"/>
<path d="M8640 3851 c0 -5 7 -12 16 -15 14 -5 15 -4 4 9 -14 17 -20 19 -20 6z"/>
<path d="M8665 3550 c3 -5 8 -10 11 -10 2 0 4 5 4 10 0 6 -5 10 -11 10 -5 0
-7 -4 -4 -10z"/>
<path d="M8640 3251 c0 -5 7 -11 15 -15 8 -3 15 -1 15 3 0 5 -7 11 -15 15 -8
3 -15 1 -15 -3z"/>
<path d="M8630 3130 c0 -5 5 -10 11 -10 5 0 7 5 4 10 -3 6 -8 10 -11 10 -2 0
-4 -4 -4 -10z"/>
<path d="M8664 3100 c0 -13 4 -16 10 -10 7 7 7 13 0 20 -6 6 -10 3 -10 -10z"/>
<path d="M8225 3440 c3 -5 12 -7 20 -3 21 7 19 13 -6 13 -11 0 -18 -4 -14 -10z"/>
<path d="M8269 3383 c-13 -16 -12 -17 4 -4 16 13 21 21 13 21 -2 0 -10 -8 -17
-17z"/>
<path d="M8896 3241 c-3 -4 -2 -28 2 -52 8 -44 8 -44 13 -11 3 17 2 32 -3 32
-5 0 -6 9 -3 20 6 20 1 27 -9 11z"/>
<path d="M8871 3198 c0 -13 4 -32 9 -43 7 -16 9 -13 9 17 1 20 -3 40 -9 43 -6
3 -10 -4 -9 -17z"/>
<path d="M8843 3189 c4 -13 7 -35 7 -48 0 -18 3 -22 11 -14 13 13 3 69 -13 79
-8 5 -9 -1 -5 -17z"/>
<path d="M4264 1465 c-4 -8 -10 -12 -15 -9 -5 3 -9 0 -9 -6 0 -6 -4 -9 -9 -6
-5 4 -11 3 -13 -1 -1 -5 -26 -19 -55 -32 -30 -14 -50 -29 -46 -35 4 -6 8 -6
11 2 2 7 7 10 12 7 5 -3 14 0 22 7 7 7 20 14 28 16 21 5 100 56 100 65 0 13
-21 7 -26 -8z"/>
<path d="M2187 1554 c-15 -15 -7 -45 11 -42 9 2 17 12 17 22 0 20 -16 31 -28
20z"/>
<path d="M2257 1463 c-10 -9 -9 -23 1 -23 5 0 17 7 28 15 19 14 19 14 -2 15
-11 0 -24 -3 -27 -7z"/>
<path d="M2286 1435 c-11 -8 -17 -18 -13 -21 10 -11 37 4 37 21 0 18 0 18 -24
0z"/>
<path d="M2470 1286 c0 -17 27 -29 35 -16 4 6 3 15 0 20 -9 15 -35 12 -35 -4z"/>
<path d="M4056 1181 c-3 -4 1 -17 9 -27 14 -18 14 -18 15 9 0 26 -13 36 -24
18z"/>
<path d="M2877 1176 c-8 -20 20 -43 35 -28 14 14 3 42 -16 42 -7 0 -16 -6 -19
-14z"/>
<path d="M3060 1093 c0 -21 2 -24 15 -13 8 7 15 16 15 20 0 4 -7 10 -15 14
-11 4 -15 -2 -15 -21z"/>
<path d="M3800 1120 c0 -29 21 -70 37 -70 16 0 17 43 3 71 -14 25 -40 25 -40
-1z"/>
<path d="M3710 1097 c0 -39 22 -73 39 -63 21 13 -5 96 -30 96 -5 0 -9 -15 -9
-33z"/>
<path d="M978 7973 c-18 -21 -31 -43 -25 -43 2 0 13 14 25 30 25 33 24 41 0
13z"/>
<path d="M975 7930 c-3 -5 -1 -10 4 -10 6 0 11 5 11 10 0 6 -2 10 -4 10 -3 0
-8 -4 -11 -10z"/>
<path d="M1027 7929 c-9 -6 -17 -6 -17 -2 -1 20 -29 -45 -29 -67 -1 -46 13
-56 47 -31 27 19 30 25 25 64 -7 51 -5 48 -26 36z"/>
<path d="M942 7820 c4 -47 12 -68 58 -135 l53 -79 49 55 c26 29 48 57 48 61 0
3 -13 1 -29 -5 -22 -8 -36 -8 -55 1 -35 15 -33 25 9 48 19 10 35 21 35 23 0 3
-9 15 -21 27 l-20 22 -46 -26 c-36 -20 -47 -22 -53 -11 -5 7 -6 17 -4 21 3 4
-2 18 -11 30 -16 22 -17 21 -13 -32z m82 -70 c-14 -14 -39 14 -29 31 5 8 12 6
23 -5 11 -11 13 -19 6 -26z"/>
<path d="M1138 7574 c-29 -15 -37 -34 -15 -34 6 0 20 12 30 25 21 29 21 29
-15 9z"/>
<path d="M1100 7515 c-7 -8 -8 -15 -2 -15 5 0 15 7 22 15 7 8 8 15 2 15 -5 0
-15 -7 -22 -15z"/>
<path d="M1026 7499 c-15 -12 -25 -23 -22 -26 8 -8 67 28 61 37 -8 13 -8 13
-39 -11z"/>
</g>
</svg>
